<svg width="458" height="352" viewBox="0 0 458 352" fill="none" xmlns="http://www.w3.org/2000/svg">
<g clip-path="url(#clip0_33515_805)">
<path d="M152.3 56.1L149.5 61H146.8L145.9 62.4H148.7L142.6 72.8C141.3 75 142.2 77 144.7 77C146.5 77 148.4 75.7 150.3 73.9C150.3 77.7 155.6 78.4 158.9 74.4H159.6C161.4 74.4 164.2 73.3 165.8 71.5C165.6 71.1 165.1 70.6 164.7 70.5L164.5 70.7C163.1 72.2 161.5 72.9 159.9 72.9L162.7 68.1C164.5 65 162.8 62 160 62C157.7 62 155.9 62.9 154.1 65.9L152.6 68.5L151.4 70.6L151.2 70.8C149 73.3 146.9 75.3 145.6 75.3C144.9 75.3 144.6 74.8 145.3 73.7L151.8 62.5H154.3L155 61H152.5L155.3 56.1H152.3ZM159.8 63.9C160.8 64 161.2 65.2 160.2 66.9L158 70.6H157.9C156.9 70.6 156.1 71.4 156.1 72.4C156.1 72.8 156.2 73.1 156.4 73.4V73.5C155 75.9 151.5 75.5 153.3 72.4L155.6 68.5L157.1 66.1C158 64.5 159.1 63.9 159.8 63.9ZM181.8 56.1L179 61H176.3L175.4 62.4H178.2L172 72.8C170.7 75 171.6 77 174.1 77C175.3 77 176.6 76.4 178 75.4L177.2 76.7H180.2L184.8 68.8C189.4 63 191.5 63.8 190.2 66L186.3 72.7C185 74.9 185.9 76.9 188.4 76.9C190.2 76.9 192.2 75.5 194.1 73.7C194.2 75.6 195.8 76.9 198.2 76.9C201.6 76.9 205 74.3 207.5 71.4C207.3 71 206.8 70.5 206.4 70.4L206.2 70.6C204 73.1 201.2 75.1 199.1 75.1C197.2 75.1 196.1 74 197.5 71.5L197.8 71C199.7 71.8 203.4 71.4 205.7 67.6L206.1 66.9C207.7 64.1 206.2 62.1 203.7 62.1C201.3 62.1 199.3 63.4 198 65.5L195.1 70.5L194.9 70.7C192.7 73.2 190.6 75.2 189.3 75.2C188.6 75.2 188.3 74.7 188.9 73.6L193.3 66.1C194.6 63.8 193.4 62.2 191.7 62.2C190.4 62.2 189 62.9 187.5 64.5L192.3 56.2H189.3L180.9 70.6L180.7 70.8C178.5 73.3 176.4 75.3 175.1 75.3C174.4 75.3 174.1 74.8 174.8 73.7L181.3 62.5H183.8L184.7 61.1H182.2L185 56.2L181.8 56.1ZM203.1 64.3C204.1 64.2 204.6 65.2 203.6 66.9L203.2 67.6C201.8 70 199.8 70 198.7 69.6L200.6 66.2C201.3 65 202.3 64.4 203.1 64.3ZM247.4 58.9C245.7 60.4 245.5 62.1 246.6 63.5L246.9 63.8C245.6 65.7 243.8 68.2 241.8 70.5L241.6 70.7C240.2 72.2 238.6 72.9 237 72.9L239.8 68.1C241.6 65 239.9 62 237.1 62C234.8 62 233 62.9 231.2 65.9L229.7 68.5L228.5 70.6L228.3 70.8C225.8 73.6 223.7 75.5 221.3 76.5L228.1 65.1H226.3C226.3 63.9 225 62.2 223.1 62.2C221.5 62.2 219.2 63.5 217.9 65.6L213.7 72.8C212.4 75 213.3 77 215.8 77C216.6 77 217.7 76.6 218.7 76L217.9 77.4C213.8 78.6 211.3 80.3 211.3 82.5C211.3 85.4 215.7 86 217.9 82.3L220.2 78.4C222.6 77.7 225 76.3 227.4 73.9C227.4 77.7 232.7 78.5 236 74.4H236.7C238.5 74.4 241.3 73.3 242.9 71.5C244.3 69.8 245.5 68.3 247.9 65.1L248.3 65.6C248.7 66.1 248.8 66.7 248.5 67.3L245.3 72.8C244 75 244.9 77 247.4 77C248.9 77 250.6 76 252.2 74.6C252.1 76 253.1 77 254.8 77C255.6 77 256.7 76.6 257.7 76L256.9 77.4C252.8 78.6 250.3 80.3 250.3 82.5C250.3 85.4 254.7 86 256.9 82.3L259.2 78.4C261.7 77.6 264.1 76.2 266.6 73.8C266.7 75.7 268.3 77 270.7 77C273.2 77 275.6 75.6 277.7 73.8C277.6 77.7 283 78.5 286.3 74.4H287C287.9 74.4 289.2 74.1 290.4 73.5C289.6 75.6 290.3 77 292.1 77C293.8 77 295.6 75.5 297.1 74.1C296.8 75.7 297.8 77 299.7 77C302.2 77 305.1 74.4 307.6 71.5C309.3 69.5 310.8 67.5 311.9 66.1C310.7 69.2 311.3 74.8 308.5 74.8C307.5 74.8 307.1 73.7 307.1 73.7L305.2 74.7C305.2 74.7 305.8 77.1 308.5 77.1C308.8 77.1 309.1 77.1 309.3 77H309.4C312.5 76.6 315.5 74.2 317.8 71.6C317.6 71.1 317.1 70.7 316.7 70.6L316.5 70.8C315.4 72 314.2 73.1 312.9 74C313.9 71.2 313.7 66.8 315.5 63L313.2 61.8C312 63.5 309.2 67.4 306.5 70.5L306.3 70.7C304.1 73.2 302 75.2 300.7 75.2C300 75.2 299.7 74.7 300.4 73.6L306.8 62.4H303.8L298.4 71.7C296.1 73.8 294.3 74.9 293.8 74.7C293 74.4 293.8 73.3 294.2 72.6L300.1 62.4H297.1L292.4 70.5L292.2 70.7C290.8 72.2 289.2 72.9 287.6 72.9L290.4 68.1C292.2 65 290.5 62 287.7 62C285.4 62 283.6 62.9 281.8 65.9L280.3 68.5L279.1 70.6L278.9 70.8C276.7 73.3 273.9 75.3 271.8 75.3C269.9 75.3 268.8 74.2 270.2 71.7L270.5 71.2C272.4 72 276.1 71.6 278.4 67.8L278.8 67.1C280.4 64.3 278.9 62.3 276.4 62.3C274 62.3 272 63.6 270.7 65.7L267.8 70.7L267.6 70.9C265.1 73.7 263 75.6 260.6 76.6L267.4 65.2H265.6C265.6 64 264.3 62.3 262.4 62.3C260.8 62.3 258.5 63.6 257.2 65.7L254.3 70.6L254.1 70.8C251.9 73.3 249.8 75.3 248.5 75.3C247.8 75.3 247.5 74.8 248.2 73.7L251.2 68.5C252.2 66.7 251.8 65.6 250.8 64.5L249.1 62.5C248.7 62 248.7 61.4 249.3 60.8L247.4 58.9ZM237.1 63.9C238.1 64 238.6 65.2 237.5 66.9L235.3 70.6H235.2C234.2 70.6 233.4 71.4 233.4 72.4C233.4 72.8 233.5 73.1 233.7 73.4V73.5C232.3 75.9 228.8 75.5 230.6 72.4L232.9 68.5L234.4 66.1C235.3 64.5 236.3 63.9 237.1 63.9ZM287.3 63.9C288.3 64 288.8 65.2 287.7 66.9L285.5 70.6H285.4C284.4 70.6 283.6 71.4 283.6 72.4C283.6 72.8 283.7 73.1 283.9 73.4V73.5C282.5 75.9 279 75.5 280.8 72.4L283.1 68.5L284.6 66.1C285.4 64.5 286.5 63.9 287.3 63.9ZM275.6 64.3C276.6 64.2 277.1 65.2 276.1 66.9L275.7 67.6C274.2 70 272.3 70 271.2 69.6L273.1 66.2C273.8 65 274.8 64.4 275.6 64.3ZM223.2 64.5C224.2 64.5 224.9 65.4 224 66.9L221.7 70.9C219.9 73.8 218 75.2 216.8 75.2C216.1 75.2 215.8 74.7 216.5 73.6L220.7 66.3C221.4 65.1 222.4 64.5 223.2 64.5ZM262.1 64.5C263.1 64.5 263.8 65.4 262.9 66.9L260.6 70.9C258.8 73.8 256.9 75.2 255.7 75.2C255 75.2 254.7 74.7 255.4 73.6L259.6 66.3C260.3 65.1 261.3 64.5 262.1 64.5ZM216.8 79.4L215.4 81.8C214.8 82.9 213.7 82.7 213.7 81.9C213.7 81.2 214.5 80.3 216.8 79.4ZM255.7 79.4L254.3 81.8C253.7 82.9 252.6 82.7 252.6 81.9C252.7 81.2 253.4 80.3 255.7 79.4ZM101 67.8H129.9V69.7H101V67.8ZM328.1 67.8H357V69.7H328.1V67.8Z" fill="#766458"/>
<path d="M322.7 37.4V45.1H301.9V0.399994H322.7V7.99999H309.5V18.8H320V26.5H309.5V37.4H322.7ZM289.9 0.399994H297.5V45.1H289.9V23.1L286.9 34.5H279.5L276.5 23.1V45.1H268.9V0.399994H276.5L283.3 22L289.9 0.399994ZM258 7.99999H252.5V37.3H258V7.99999ZM261 0.399994C263.5 0.399994 265.7 2.49999 265.7 5.09999V40.4C265.7 43 263.5 45.1 261 45.1H249.6C247 45.1 244.9 42.9 244.9 40.4V5.09999C244.9 2.49999 247 0.399994 249.6 0.399994H261ZM233 28.6L240.7 26.8V40.4C240.7 43 238.5 45.1 236 45.1H224.6C222 45.1 219.9 42.9 219.9 40.4V5.09999C219.9 2.49999 222 0.399994 224.6 0.399994H236C238.5 0.399994 240.7 2.49999 240.7 5.09999V14.2L233 16V7.99999H227.5V37.3H233V28.6ZM216.2 37.4V45.1H198V0.399994H205.6V37.4H216.2ZM194.8 37.4V45.1H174V0.399994H194.8V7.99999H181.6V18.8H192.1V26.5H181.6V37.4H194.8ZM162.6 0.399994H170.3L169 45.1H154.5L152.5 26.6L150.5 45.1H136L135 0.399994H142.6L143.2 37.4H144L148.8 0.399994H156.4L161.3 37.4H162.1L162.6 0.399994Z" fill="#81B3D3"/>
<g filter="url(#filter0_d_33515_805)">
<mask id="path-3-inside-1_33515_805" fill="white">
<path d="M381.4 201.7L406.8 127.7H432L457.7 201.7H437.5L433.8 188.3H405.2L401.4 201.7H381.4ZM417.1 149.6L409.6 174.1H429.7L422.2 149.6C421.8 148.4 421.4 147.2 421 146C420.7 144.7 420.4 143.5 420.2 142.2C420 141.7 419.9 141.3 419.9 140.9C419.8 140.4 419.7 140 419.7 139.6C419.6 140 419.5 140.4 419.4 140.9C419.3 141.3 419.2 141.7 419.2 142.2C419.1 142.4 419.1 142.5 419.1 142.7C419.1 142.8 419.1 142.9 419 143C418.8 144.1 418.5 145.3 418.2 146.4C417.7 147.4 417.4 148.5 417.1 149.6ZM299.4 201.7V127.7H318.9L346.8 165.7C347.5 166.8 348.2 168 348.8 169.2C349.5 170.4 350.2 171.6 350.8 172.8L352.2 175.8C352.7 176.8 353.1 177.8 353.6 178.7C353.5 177.9 353.4 177.1 353.3 176.3C353.2 175.5 353.1 174.7 353.1 173.9C352.9 172.3 352.8 170.7 352.8 169.1C352.7 167.4 352.7 165.8 352.7 164.1V127.8H372.1V201.8H352.7L324.6 163.6C323.8 162.7 323.1 161.6 322.4 160.3C321.7 159 321 157.6 320.4 156.2C320 155.2 319.5 154.3 319 153.3C318.6 152.4 318.3 151.4 317.8 150.5C318.2 152.9 318.5 155.3 318.7 157.8C318.9 160.3 319 162.8 319 165.2V201.7H299.4ZM211.4 146.8C215 140.2 219.9 135.2 226.3 131.7C232.7 128.2 239.3 126.5 246.2 126.5C247.1 126.5 248.1 126.5 249 126.6C250 126.7 251 126.8 251.9 126.8C254.8 127.2 257.6 127.9 260.4 128.9C263.3 129.9 266 131.2 268.5 132.8C274 136.4 278.3 141.1 281.3 147.1C284.3 153 285.8 159.1 285.8 165.6C285.8 166.4 285.8 167.2 285.7 168C285.7 168.8 285.6 169.5 285.5 170.3C285.3 172 285 173.6 284.6 175.2C284.2 176.8 283.7 178.3 283.1 179.8C279.8 187.3 274.8 193.2 267.9 197.3C261 201.4 253.8 203.5 246.2 203.5C245.7 203.5 245.1 203.5 244.6 203.4H243.1C240.4 203.2 237.8 202.7 235.2 202C232.6 201.3 230.1 200.3 227.8 199.1C221.3 195.7 216.2 190.9 212.5 184.6C208.8 178.3 206.9 171.7 206.9 164.9C206.9 163.9 206.9 162.9 207 161.9C207.1 160.9 207.2 159.8 207.5 158.8C207.9 156.8 208.4 154.7 209.1 152.8C209.5 150.6 210.4 148.7 211.4 146.8ZM264.2 173.4C264.4 172.6 264.6 171.8 264.8 171C265 170.1 265.2 169.3 265.3 168.4C265.4 167.9 265.4 167.3 265.4 166.8C265.5 166.3 265.5 165.8 265.5 165.3C265.5 164.8 265.5 164.4 265.4 163.9V162.5C265 159.2 264 156 262.4 152.9C260.8 149.8 258.5 147.4 255.7 145.7C254.9 145.3 254.2 145 253.4 144.7C252.6 144.4 251.9 144.1 251.1 143.9C250.3 143.7 249.6 143.6 248.8 143.6C248 143.4 247.3 143.4 246.5 143.4C242.6 143.4 238.9 144.6 235.6 147.1C232.3 149.6 229.9 152.9 228.6 157L228.4 157.5V158C228.2 158.7 228 159.5 227.8 160.2C227.6 160.9 227.5 161.6 227.3 162.4L227.1 164V166.4C227.1 166.6 227.1 166.9 227.2 167.2C227.4 171.3 228.7 175.2 230.9 178.9C233.2 182.5 236.4 184.9 240.4 186.1L241.8 186.6C242.3 186.7 242.8 186.8 243.3 186.8L244.7 187H246.1C250.2 187 253.9 185.8 257.1 183.4C260.4 180.8 262.8 177.5 264.2 173.4ZM182.1 194.8C178.5 197.3 174.5 199 170.3 199.9C166.1 200.8 161.7 201.4 157.4 201.6C156.2 201.7 154.9 201.7 153.7 201.7H129.9V127.7H155C156.2 127.7 157.4 127.7 158.6 127.8C162.8 128 166.9 128.6 170.9 129.5C175 130.4 178.8 132.2 182.2 134.6C186.5 137.6 189.9 141.6 192.3 146.6C194.7 151.6 196.1 156.7 196.4 161.9C196.5 162.4 196.5 162.8 196.5 163.3V166.2C196.3 171.7 195 177 192.6 182.1C190.2 187.2 186.6 191.5 182.1 194.8ZM149.7 185.1C149.9 185.1 150.2 185.1 150.4 185.2H151.2C151.5 185.2 151.8 185.2 152 185.3H155.1C156 185.2 156.8 185.1 157.5 185.1C159.5 184.9 161.5 184.6 163.4 184.1C165.3 183.6 167.1 182.7 168.6 181.7C171.1 179.9 172.9 177.5 174.1 174.5C175.3 171.4 176 168.2 176 164.9V164C176 163.7 176 163.4 175.9 163.1C175.7 160.2 175 157.3 173.8 154.6C172.6 151.8 170.9 149.6 168.7 148C167.1 146.7 165.2 145.8 163.2 145.3C161.2 144.8 159.2 144.6 157.2 144.5H149.7V185.1ZM69.8 201.7V127.7H115.2V143.8H89.6V156.8H113.6V172.6H89.6V185.1H115.1V201.7H69.8ZM10.4 177.9C10.5 178 10.5 178.1 10.5 178.1C10.6 178.1 10.7 178.1 10.7 178.2C12.8 180.5 15.2 182.7 17.8 184.7C20.4 186.6 23.5 187.7 26.9 187.8C27 187.8 27.1 187.8 27.1 187.9H27.4C27.5 187.9 27.6 187.9 27.6 188H28.9C29.3 187.9 29.6 187.8 29.9 187.8C31.1 187.6 32.3 187.1 33.4 186.4C34.6 185.7 35.5 184.9 36.1 183.8L36.3 183.3L36.5 182.8C36.7 182.3 36.8 181.8 36.8 181.3C36.9 180.8 36.9 180.4 36.9 180C36.9 177.9 36 176.2 34.1 174.8C32.4 173.4 30.4 172.2 28.3 171.4C27.5 171.1 26.7 170.9 25.9 170.7C25.2 170.5 24.4 170.3 23.7 170.1H23.5C23.4 170 23.3 170 23.3 170C19.5 169.1 15.9 167.6 12.6 165.6C9.3 163.5 7 160.5 5.7 156.7C5.5 155.9 5.2 155.1 5 154.3C4.8 153.4 4.7 152.5 4.7 151.6C4.7 151.5 4.7 151.2 4.7 151V148.2C4.8 147.6 4.9 147 5 146.3C5.2 144.7 5.6 143.2 6.2 141.7C6.7 140.2 7.4 138.8 8.3 137.5C10.8 133.4 14 130.5 17.8 128.7C21.7 126.9 25.9 126 30.1 126C31.1 126 32.1 126.1 33.1 126.2C34.2 126.3 35.3 126.4 36.4 126.5C39.2 127 42 127.8 44.6 128.8C47.4 129.9 49.9 131.2 52.3 132.6L45.9 146.9C43.8 145.4 41.6 144 39.3 142.8C37 141.6 34.5 141.1 31.8 141.1H30.9C29.1 141.3 27.5 142.1 25.9 143.5C24.4 144.8 23.6 146.2 23.6 147.8V148.5C23.7 148.7 23.8 149 23.9 149.2C24.1 149.7 24.3 150.2 24.7 150.7C25.1 151.2 25.5 151.6 26 152C26.9 152.7 28.1 153.4 29.7 154C31.3 154.5 33 155.1 34.8 155.6C36.3 156 37.7 156.4 39.1 156.8C40.5 157.1 41.7 157.4 42.6 157.7C46.9 159.2 50.2 161.8 52.4 165.5C54.6 169.1 55.7 172.9 55.8 176.9V177.5C55.8 178 55.8 178.4 55.7 178.9V180.2C55.2 184.2 53.9 188.1 51.8 191.7C49.7 195.3 46.9 198.1 43.3 200.1C42 200.7 40.6 201.3 39.2 201.7C37.8 202.1 36.4 202.4 35 202.7C33.9 202.9 32.7 203.1 31.5 203.2C30.4 203.4 29.3 203.4 28.1 203.4H26.7C22.1 203.2 17.5 202.2 13 200.4C8.5 198.5 4.5 195.9 1 192.7L10.4 177.9ZM352 325C352 324.7 352.1 324.4 352.2 324.1C352.3 323.8 352.5 323.5 352.7 323.3C352.9 323.1 353.2 322.9 353.5 322.7C353.8 322.6 354.2 322.5 354.6 322.5C355.1 322.5 355.5 322.6 355.9 322.8C356.3 323 356.7 323.2 357 323.5C357.2 323.8 357.4 324.1 357.6 324.5C357.7 324.9 357.8 325.3 357.8 325.8C357.8 326.7 357.6 327.4 357.3 328.2C357 328.9 356.6 329.6 356 330.1C355.7 330.4 355.5 330.6 355.2 330.8C354.9 331 354.6 331.2 354.3 331.3C354 331.4 353.8 331.6 353.6 331.7C353.5 331.8 353.4 331.8 353.2 331.9L351.8 329.9C352 329.8 352.3 329.7 352.6 329.5C352.9 329.4 353.2 329.2 353.5 329C353.8 328.8 354 328.5 354.2 328.2C354.4 327.9 354.5 327.6 354.5 327.2C353.9 327.2 353.3 327 352.8 326.6C352.2 326.3 352 325.8 352 325ZM359.8 325C359.8 324.7 359.9 324.4 360 324.1C360.1 323.8 360.3 323.5 360.5 323.3C360.7 323.1 361 322.9 361.3 322.7C361.6 322.6 362 322.5 362.4 322.5C362.9 322.5 363.3 322.6 363.7 322.8C364.1 323 364.5 323.2 364.8 323.5C365 323.8 365.2 324.1 365.4 324.5C365.5 324.9 365.6 325.3 365.6 325.8C365.6 326.6 365.5 327.4 365.1 328.2C364.8 328.9 364.4 329.6 363.8 330.1C363.5 330.4 363.3 330.6 363 330.8C362.7 331 362.4 331.2 362.1 331.3C361.8 331.4 361.6 331.6 361.4 331.7C361.3 331.8 361.2 331.8 361 331.9L359.7 329.9C359.9 329.8 360.2 329.7 360.5 329.5C360.8 329.4 361.1 329.2 361.4 329C361.7 328.8 361.9 328.5 362.1 328.2C362.3 327.9 362.4 327.6 362.4 327.2C361.8 327.2 361.2 327 360.7 326.6C360 326.3 359.8 325.8 359.8 325ZM95.2 266.3C95.2 266.6 95.1 266.9 95 267.2C94.9 267.5 94.7 267.8 94.5 268C94 268.5 93.3 268.8 92.6 268.8C92.2 268.8 91.7 268.7 91.3 268.5C90.9 268.3 90.5 268.1 90.2 267.8C89.9 267.5 89.7 267.1 89.6 266.8C89.5 266.4 89.4 266 89.4 265.5C89.4 264.6 89.6 263.9 89.9 263.1C90.2 262.4 90.6 261.7 91.2 261.2C91.5 260.9 91.7 260.7 92 260.5C92.3 260.3 92.6 260.1 92.9 260C93.2 259.9 93.4 259.7 93.6 259.6C93.8 259.5 93.9 259.5 94 259.4L95.3 261.4C95 261.5 94.7 261.6 94.5 261.8C94.2 261.9 93.9 262.1 93.6 262.3C93.3 262.5 93.1 262.8 92.9 263.1C92.7 263.4 92.6 263.7 92.6 264.1C93.3 264.1 93.8 264.3 94.3 264.7C95 265.1 95.2 265.6 95.2 266.3ZM87.4 266.3C87.4 266.9 87.2 267.5 86.7 268C86.5 268.2 86.2 268.4 85.9 268.6C85.6 268.7 85.2 268.8 84.8 268.8C84.4 268.8 83.9 268.7 83.5 268.5C83.1 268.3 82.7 268.1 82.4 267.8C82.1 267.5 81.9 267.1 81.8 266.8C81.7 266.4 81.6 266 81.6 265.5C81.6 264.6 81.8 263.9 82.1 263.1C82.4 262.4 82.8 261.7 83.4 261.2C83.6 261 83.9 260.7 84.2 260.5C84.5 260.3 84.8 260.1 85.1 260C85.4 259.9 85.6 259.7 85.8 259.6C86 259.5 86.1 259.5 86.2 259.4L87.5 261.4C87.3 261.5 87 261.6 86.7 261.8C86.4 261.9 86.1 262.1 85.8 262.3C85.5 262.5 85.3 262.8 85.1 263.1C84.9 263.4 84.8 263.7 84.8 264.1C85.5 264.1 86 264.3 86.5 264.7C87.1 265.1 87.4 265.6 87.4 266.3ZM332.7 323.2H336.5L348.3 302.6H344.5L332.7 323.2ZM332.6 324.7C331.4 324.7 330.4 325.7 330.4 326.9C330.4 328.1 331.3 329.1 332.6 329.1C333.8 329.1 334.8 328.2 334.8 326.9C334.8 325.6 333.8 324.7 332.6 324.7ZM306.2 319.2L307.3 317.3C311.7 311.2 314.6 312.9 313.3 315.2L311.5 318.3C310.4 320.2 307 321.6 306.2 319.2ZM331.3 322.1C331.1 321.5 330.4 320.9 329.9 320.8L329.6 321.1C328.3 322.7 326.7 324 325.1 325.2C326.3 321.6 326 316.1 328.4 311.2L325.6 309.7C324 311.8 320.6 316.8 317.2 320.8L316.9 321.1C314.2 324.3 311.5 326.8 309.9 326.8C309.1 326.8 308.3 326 308.3 324.3V322.7C311 323 313.8 321.3 315.5 318.2L316.5 316.5C320 310.5 314.3 308.5 310.4 312L315.8 302.7H312L301.2 321.4C301 321.2 300.8 321.1 300.5 320.9L300.2 321.2C297.5 324.4 294 326.9 291.3 326.9C289 326.9 287.6 325.4 289.3 322.4L293.2 315.6C295.4 311.9 299.2 312.5 297 316.4L296.5 317.3H299.6L300.1 316.4C302.1 312.9 300.2 310.3 297.1 310.3C294 310.3 291.6 311.9 290 314.7L286.3 321.1C286.2 321.1 286.1 321 286.1 321L285.8 321.3C283.1 324.5 280.4 327 278.8 327C278 327 277.5 326.4 278.4 324.9L286.5 310.8H282.7L276 322.5C273.1 325.1 270.9 326.6 270.2 326.2C269.3 325.8 270.2 324.4 270.7 323.6L278.1 310.7H274.3L267 323.4C266.2 324.1 264.6 324.8 263.8 325.3C265 321.7 264.7 316.2 267.1 311.3L264.3 309.8C262.7 311.9 254 323.5 250.6 327.5C250.9 328 251.5 328.4 252 328.8C254.1 326.3 261.3 317.1 262.7 315.3C261.2 319.2 262 326.3 258.4 326.3C257.1 326.3 256.6 324.9 256.6 324.9L254.2 326.1C254.2 326.1 254.9 329.1 258.3 329.1C258.7 329.1 259 329.1 259.4 329H259.5C261.4 328.7 264.1 327.9 265.9 326.6C265.9 328.1 266.8 329.1 268.4 329.1C270.5 329.1 272.8 327.2 274.6 325.5C274.2 327.5 275.4 329.1 277.8 329.1C280.1 329.1 282.8 327.2 285.2 324.7C285.2 327.2 287.2 329.1 290.3 329.1C293.4 329.1 296.4 327.4 299 325.1L296.9 328.8H300.7L305 321.3V324.3C305 327.5 305.6 329.2 308.7 329.2C311.8 329.2 315.4 325.9 318.5 322.2C320.6 319.7 322.5 317.1 323.9 315.3C322.4 319.2 323.2 326.3 319.6 326.3C318.3 326.3 317.8 324.9 317.8 324.9L315.4 326.1C315.4 326.1 316.1 329.1 319.5 329.1C319.9 329.1 320.2 329.1 320.6 329H320.7C324.7 328.5 328.5 325.4 331.3 322.1ZM216.7 321H216.5C215.3 321 214.3 322 214.3 323.3C214.3 323.8 214.4 324.2 214.7 324.6V324.7C212.9 327.7 208.6 327.2 210.8 323.2L213.7 318.2L215.5 315.1C218.2 310.6 221.8 312.4 219.5 316.3L216.7 321ZM191.3 335.2C190.5 336.6 189.2 336.4 189.2 335.4C189.2 334.4 190.1 333.3 193 332.2L191.3 335.2ZM162.5 321.4C160.2 325 158 326.7 156.4 326.7C155.6 326.7 155.1 326.1 156 324.6L161.3 315.4C163.3 311.9 167.4 312.8 165.5 316.2L162.5 321.4ZM150.5 306.7C151.6 304.8 152.9 303.9 153.9 303.9C155.3 303.9 156 304.8 156 306.2C156 309.7 151.6 317 145.8 316.1H145L150.5 306.7ZM243.3 320.8L243 321.1C240.3 324.3 237.6 326.8 236 326.8C235.2 326.8 234.7 326.2 235.6 324.7L241 315.1C242.6 312.2 241.1 310.2 239 310.2C237.4 310.2 235.7 311.1 233.8 313L235.2 310.5H231.4L225.3 321C225.1 320.9 225 320.8 224.8 320.7L224.5 321C222.8 322.9 220.7 323.8 218.8 323.8L222.4 317.7C224.7 313.7 222.6 310 219 310C216.1 310 213.8 311.2 211.7 314.9L209.8 318.1L208.2 320.9C208.1 320.8 208 320.8 207.9 320.7L207.6 321C204.5 324.6 201.8 326.9 198.8 328.2L209.2 310.5H205.4L198.7 322.1C195.8 324.8 193.5 326.3 192.8 326C191.9 325.6 192.8 324.2 193.3 323.4L200.7 310.5H196.9L190.9 320.9C190.8 320.8 190.7 320.8 190.6 320.7L190.3 321C187.6 324.2 184.9 326.7 183.3 326.7C182.5 326.7 182 326.1 182.9 324.6L188.3 315C189.9 312.1 188.4 310.1 186.3 310.1C184.7 310.1 183 311 181.1 312.9L182.5 310.4H178.7L172.7 320.8C172.6 320.7 172.5 320.7 172.3 320.6L172 320.9C169.3 324.1 166.6 326.6 165 326.6C164.2 326.6 163.7 326 164.6 324.5L170.7 313.8H168.6C168.7 312.2 167.1 310 164.6 310C162.6 310 159.7 311.6 158.1 314.4L154.2 321.1C153.9 320.9 153.6 320.7 153.4 320.6L153.1 320.9C150.4 324.1 148.3 326.6 144.5 326.6C141.9 326.6 140.4 324 142.6 320.2L143.7 318.3C144.4 318.4 145.1 318.5 145.8 318.5C149.8 318.5 154.4 316.4 157.4 311.2C158.5 309.3 158.9 307.6 158.9 306.1C158.9 302.7 156.7 300.5 153.9 300.5C151.8 300.5 149.4 302 147.7 304.9L141.8 315C139.6 313.8 138.4 311.7 138.4 309.6C138.4 307.9 139.2 306.1 140.8 304.8L139.6 302.6C136.9 304.5 135.7 307.1 135.7 309.6C135.7 312.6 137.4 315.5 140.5 317.1L139.4 319.1C136.7 323.7 138.3 328.8 143.6 328.8C147.8 328.8 149.7 326.9 152.3 324.4C151.5 326.8 152.7 328.8 155.3 328.8C156.8 328.8 158.7 327.8 160.5 326.3C160.7 327.8 161.8 328.8 163.8 328.8C165.6 328.8 167.6 327.7 169.5 326L168.1 328.4H171.9L177.7 318.3C183.5 311.1 186.1 312 184.4 314.8L179.5 323.3C177.9 326.1 179 328.7 182.1 328.7C184.1 328.7 186.4 327.3 188.5 325.3C188 327.4 189 328.7 190.9 328.7C192.7 328.7 194.8 327.2 196.5 325.7L194.4 329.3C189.3 330.8 186.1 332.9 186.1 335.8C186.1 339.4 191.7 340.2 194.4 335.5L197.3 330.5C200.5 329.5 203.6 327.5 206.8 324.3C206.3 329.6 213.3 330.8 217.5 325.4H218.3C219.7 325.4 221.5 324.9 223.2 323.9L220.7 328.3H224.5L230.3 318.2C236.1 311 238.7 311.9 237 314.7L232.1 323.2C230.5 326 231.6 328.6 234.7 328.6C237.8 328.6 241.4 325.3 244.5 321.6C244.4 321.6 243.8 321 243.3 320.8ZM361.9 285.2C359.6 288.9 357.3 290.7 355.7 290.7C354.9 290.7 354.4 290.1 355.3 288.6L360.6 279.4C362.6 275.9 366.7 276.8 364.8 280.2L361.9 285.2ZM325.7 285.4C323.4 289 321.2 290.7 319.6 290.7C318.8 290.7 318.3 290.1 319.2 288.6L324.5 279.4C326.5 275.9 330.6 276.8 328.7 280.2L325.7 285.4ZM285.8 299.2C285 300.6 283.7 300.4 283.7 299.4C283.7 298.4 284.6 297.3 287.5 296.2L285.8 299.2ZM293.8 270.7C294.9 268.8 296.2 267.9 297.2 267.9C303.2 267.9 298.7 282.3 289.1 280.1H288.3L293.8 270.7ZM371.5 284.8L371.2 285.1C368.5 288.3 365.8 290.8 364.2 290.8C363.4 290.8 362.9 290.2 363.8 288.7L376.6 266.6H372.8L367.2 276.2C366.5 275.1 365.3 274.2 363.7 274.2C361.7 274.2 358.8 275.8 357.2 278.6L353.5 285C353.4 285 353.3 284.9 353.3 284.9L353 285.2C350.3 288.4 348 290.9 346.3 290.9C345.5 290.9 345 290.3 345.9 288.8L351.4 279.2C353 276.3 351.5 274.3 349.4 274.3C347.8 274.3 346.1 275.2 344.2 277.1L345.6 274.6H341.8L335.8 285C335.7 284.9 335.6 284.9 335.4 284.8L335.1 285.1C332.4 288.3 329.7 290.8 328.1 290.8C327.3 290.8 326.8 290.2 327.7 288.7L333.8 278H331.7C331.8 276.4 330.2 274.2 327.7 274.2C325.7 274.2 322.8 275.8 321.2 278.6L317.5 284.9L317.3 285.1C314.6 288.3 311.5 290.8 309.9 290.8C309.1 290.8 308.6 290.2 309.5 288.7L313.3 282.1C314.6 279.8 314 278.5 312.8 277L310.7 274.5C310.2 273.8 310.2 273 310.9 272.3L308.9 270.2C306.8 272.1 306.6 274.3 307.9 276L308.2 276.4C306.5 278.8 304.3 282 301.8 284.9C301.9 285 302 285.1 302.1 285.2C299 288.8 296.3 291.1 293.4 292.4L298.2 284.2H294.4L294 284.9C292 288.4 289.7 290.9 286.8 290.9C284.2 290.9 283.8 288.3 286 284.5L287.1 282.6C287.8 282.7 288.5 282.8 289.2 282.8C302.6 282.8 309.1 264.8 297.3 264.8C295.2 264.8 292.8 266.3 291.1 269.2L285.2 279.3C283 278.1 281.8 276 281.8 273.9C281.8 272.2 282.6 270.4 284.2 269.1L283 266.9C280.3 268.8 279.1 271.4 279.1 273.9C279.1 276.9 280.8 279.8 283.9 281.4L282.8 283.4C280.1 288 280.6 293.1 286 293.1C287.6 293.1 288.9 292.6 290.1 291.9L289.1 293.6C284 295.2 280.8 297.2 280.8 300.1C280.8 303.7 286.4 304.5 289.1 299.8L292 294.8C295.9 293.6 299.8 290.9 303.9 286.1C303.8 286 303.8 285.9 303.7 285.7C305.4 283.7 306.8 281.8 309.7 278L310.2 278.6C310.7 279.2 310.9 280 310.4 280.7L306.4 287.6C304.8 290.4 305.9 293 309 293C310.9 293 313.3 291.8 315.4 290C315.4 291.7 316.5 293 318.7 293C320.2 293 322.1 292 323.9 290.5C324.1 292 325.2 293 327.2 293C329 293 331 291.9 332.9 290.2L331.5 292.6H335.3L341.1 282.5C346.9 275.3 349.5 276.2 347.8 279L342.9 287.5C341.3 290.3 342.4 292.9 345.5 292.9C347.5 292.9 349.3 291.5 351.5 289.6C351.3 291.5 352.5 292.9 354.8 292.9C356.3 292.9 358.2 291.9 360 290.4C360.2 291.9 361.3 292.9 363.3 292.9C366.4 292.9 370 289.6 373.1 285.9C372.6 285.6 372 285 371.5 284.8ZM259.2 279.5C261.4 275.8 265.2 276.4 263 280.3L262.5 281.2C260.7 284.3 258.2 284.2 256.8 283.7L259.2 279.5ZM256.2 293.1C260.5 293.1 264.7 289.8 267.9 286.1C267.6 285.6 267 285 266.5 284.8L266.2 285.1C263.5 288.3 260 290.8 257.3 290.8C255 290.8 253.6 289.3 255.3 286.3L255.7 285.6C258.1 286.6 262.7 286.1 265.5 281.2L266 280.3C268 276.8 266.1 274.2 263 274.2C260 274.2 257.5 275.8 255.9 278.6L252.2 284.9C252.2 284.9 252.1 284.9 252.1 284.8L251.8 285.1C249.1 288.3 246.4 290.8 244.8 290.8C244 290.8 243.5 290.2 244.4 288.7L249.8 279.1C251.4 276.2 249.9 274.2 247.8 274.2C246.2 274.2 244.4 275.1 242.5 277.1L248.5 266.6H244.7L234 285.1C233.9 285 233.7 284.9 233.6 284.8L233.3 285.1C230.6 288.3 227.9 290.8 226.3 290.8C225.5 290.8 225 290.2 225.9 288.7L234 274.6H237.1L238.2 272.8H235.1L238.7 266.6H234.9L231.3 272.8H227.9L226.8 274.6H230.2L222.6 287.8C221 290.6 222.1 293.2 225.2 293.2C227.1 293.2 229.1 292 231.1 290.2L229.6 292.8H233.4L239.1 282.8C244.9 275.5 247.5 276.4 245.9 279.2L241 287.7C239.4 290.5 240.5 293.1 243.6 293.1C245.9 293.1 248.4 291.3 250.9 288.9C251.1 291.3 253.1 293.1 256.2 293.1ZM128.7 279.5C130.9 275.8 134.7 276.4 132.5 280.3L132 281.2C130.2 284.3 127.7 284.2 126.3 283.7L128.7 279.5ZM151.8 288.7L157.1 279.5C159.1 276 163.2 276.9 161.3 280.3L158.4 285.5C156.1 289.1 153.9 290.8 152.3 290.8C151.4 290.7 150.9 290.2 151.8 288.7ZM205.8 279.5C208 275.8 211.8 276.4 209.6 280.3L209.1 281.2C207.3 284.3 204.9 284.2 203.4 283.7L205.8 279.5ZM148 289C147.4 291.2 148.6 293.1 151.1 293.1C152.6 293.1 154.5 292.1 156.3 290.6C156.5 292.1 157.6 293.1 159.6 293.1C161.6 293.1 163.8 291.7 166 289.8C165.6 291.8 166.5 293.1 168.4 293.1C170.5 293.1 172.8 291.2 174.6 289.5C174.2 291.5 175.4 293.1 177.8 293.1C180.9 293.1 184.5 289.8 187.6 286.1C187.6 286.1 187.5 286 187.5 285.9C189.6 283.5 191.4 280.9 192.7 279.1C191.2 283 192 290.1 188.4 290.1C187.1 290.1 186.6 288.7 186.6 288.7L184.2 289.9C184.2 289.9 184.9 293 188.3 293C188.7 293 189 293 189.4 292.9H189.5C192.3 292.5 195 290.8 197.4 288.7C197.5 291.2 199.4 293 202.5 293C206.8 293 211 289.7 214.2 286C213.9 285.5 213.3 284.9 212.8 284.7L212.5 285C209.8 288.2 206.3 290.7 203.6 290.7C201.3 290.7 199.9 289.2 201.6 286.2L202 285.5C204.4 286.5 209 286 211.8 281.1L212.3 280.2C214.3 276.7 212.4 274.1 209.3 274.1C206.2 274.1 203.8 275.7 202.2 278.5L198.5 284.8H198.4L198.1 285.1C196.8 286.7 195.2 288 193.6 289.2C194.8 285.6 194.5 280.1 196.9 275.2L194.1 273.7C192.5 275.8 189.1 280.8 185.7 284.8L185.8 284.9L185.7 285.1C183 288.3 180.3 290.8 178.7 290.8C177.9 290.8 177.4 290.2 178.3 288.7L186.4 274.6H182.6L175.9 286.3C173 288.9 170.8 290.4 170.1 290C169.2 289.6 170.1 288.2 170.6 287.4L178 274.5H174.2L168.2 284.9C168.1 284.8 168 284.8 167.9 284.7L167.6 285C164.9 288.2 162.2 290.7 160.6 290.7C159.8 290.7 159.3 290.1 160.2 288.6L166.3 277.9H164.2C164.3 276.3 162.7 274.1 160.2 274.1C158.2 274.1 155.3 275.7 153.7 278.5L149.9 285.1C149.7 285 149.5 284.8 149.3 284.7L149 285C146.3 288.2 143.1 290.7 140.5 290.7C138.2 290.7 136.8 289.2 138.5 286.2L142.4 279.4C144.6 275.7 148.4 276.3 146.2 280.2L145.7 281.1H148.8L149.3 280.2C151.3 276.7 149.4 274.1 146.3 274.1C143.2 274.1 141.2 275.7 139.6 278.5L135.8 284.9C135.7 284.8 135.6 284.8 135.5 284.7L135.2 285C132.5 288.2 129.3 290.7 126.6 290.7C124.3 290.7 122.9 289.2 124.6 286.2L125 285.5C127.4 286.5 132 286 134.8 281.1L135.3 280.2C137.3 276.7 135.4 274.1 132.3 274.1C129.2 274.1 126.8 275.7 125.2 278.5L121.2 285.3C118.8 289.3 120.9 293 125.3 293C128.6 293 131.3 291 134.1 288.4C134 291 136 293 139.2 293C142.6 293.1 145.3 291.3 148 289ZM111.1 275L114.2 269.8C117 265 120.5 267.8 118.6 271.4C117.1 274.1 115 275 111.1 275ZM107 292.3C104.7 292.3 103 291.8 101.6 291C102.3 290.2 102.9 289.3 103.5 288.3L109.9 277.3L110.9 277.4C119.7 279.2 116.2 292.3 107 292.3ZM116.4 276.8C124 274.2 124.6 264.7 117.1 264.7C115 264.7 112.6 266.2 110.9 269.1L100.7 286.7C100.3 287.5 99.8 288.2 99.2 288.8C96.6 285.2 97.3 279.8 101 277.5L99.5 275.6C91.6 280.6 93.9 295.2 107.1 295.2C118.4 295.2 123.6 281.6 116.4 276.8Z"/>
</mask>
<path d="M381.4 201.7L406.8 127.7H432L457.7 201.7H437.5L433.8 188.3H405.2L401.4 201.7H381.4ZM417.1 149.6L409.6 174.1H429.7L422.2 149.6C421.8 148.4 421.4 147.2 421 146C420.7 144.7 420.4 143.5 420.2 142.2C420 141.7 419.9 141.3 419.9 140.9C419.8 140.4 419.7 140 419.7 139.6C419.6 140 419.5 140.4 419.4 140.9C419.3 141.3 419.2 141.7 419.2 142.2C419.1 142.4 419.1 142.5 419.1 142.7C419.1 142.8 419.1 142.9 419 143C418.8 144.1 418.5 145.3 418.2 146.4C417.7 147.4 417.4 148.5 417.1 149.6ZM299.4 201.7V127.7H318.9L346.8 165.7C347.5 166.8 348.2 168 348.8 169.2C349.5 170.4 350.2 171.6 350.8 172.8L352.2 175.8C352.7 176.8 353.1 177.8 353.6 178.7C353.5 177.9 353.4 177.1 353.3 176.3C353.2 175.5 353.1 174.7 353.1 173.9C352.9 172.3 352.8 170.7 352.8 169.1C352.7 167.4 352.7 165.8 352.7 164.1V127.8H372.1V201.8H352.7L324.6 163.6C323.8 162.7 323.1 161.6 322.4 160.3C321.7 159 321 157.6 320.4 156.2C320 155.2 319.5 154.3 319 153.3C318.6 152.4 318.3 151.4 317.8 150.5C318.2 152.9 318.5 155.3 318.7 157.8C318.9 160.3 319 162.8 319 165.2V201.7H299.4ZM211.4 146.8C215 140.2 219.9 135.2 226.3 131.7C232.7 128.2 239.3 126.5 246.2 126.5C247.1 126.5 248.1 126.5 249 126.6C250 126.7 251 126.8 251.9 126.8C254.8 127.2 257.6 127.9 260.4 128.9C263.3 129.9 266 131.2 268.5 132.8C274 136.4 278.3 141.1 281.3 147.1C284.3 153 285.8 159.1 285.8 165.6C285.8 166.4 285.8 167.2 285.7 168C285.7 168.8 285.6 169.5 285.5 170.3C285.3 172 285 173.6 284.6 175.2C284.2 176.8 283.7 178.3 283.1 179.8C279.8 187.3 274.8 193.2 267.9 197.3C261 201.4 253.8 203.5 246.2 203.5C245.7 203.5 245.1 203.5 244.6 203.4H243.1C240.4 203.2 237.8 202.7 235.2 202C232.6 201.3 230.1 200.3 227.8 199.1C221.3 195.7 216.2 190.9 212.5 184.6C208.8 178.3 206.9 171.7 206.9 164.9C206.9 163.9 206.9 162.9 207 161.9C207.1 160.9 207.2 159.8 207.5 158.8C207.9 156.8 208.4 154.7 209.1 152.8C209.5 150.6 210.4 148.7 211.4 146.8ZM264.2 173.4C264.4 172.6 264.6 171.8 264.8 171C265 170.1 265.2 169.3 265.3 168.4C265.4 167.9 265.4 167.3 265.4 166.8C265.5 166.3 265.5 165.8 265.5 165.3C265.5 164.8 265.5 164.4 265.4 163.9V162.5C265 159.2 264 156 262.4 152.9C260.8 149.8 258.5 147.4 255.7 145.7C254.9 145.3 254.2 145 253.4 144.7C252.6 144.4 251.9 144.1 251.1 143.9C250.3 143.7 249.6 143.6 248.8 143.6C248 143.4 247.3 143.4 246.5 143.4C242.6 143.4 238.9 144.6 235.6 147.1C232.3 149.6 229.9 152.9 228.6 157L228.4 157.5V158C228.2 158.7 228 159.5 227.8 160.2C227.6 160.9 227.5 161.6 227.3 162.4L227.1 164V166.4C227.1 166.6 227.1 166.9 227.2 167.2C227.4 171.3 228.7 175.2 230.9 178.9C233.2 182.5 236.4 184.9 240.4 186.1L241.8 186.6C242.3 186.7 242.8 186.8 243.3 186.8L244.7 187H246.1C250.2 187 253.9 185.8 257.1 183.4C260.4 180.8 262.8 177.5 264.2 173.4ZM182.1 194.8C178.5 197.3 174.5 199 170.3 199.9C166.1 200.8 161.7 201.4 157.4 201.6C156.2 201.7 154.9 201.7 153.7 201.7H129.9V127.7H155C156.2 127.7 157.4 127.7 158.6 127.8C162.8 128 166.9 128.6 170.9 129.5C175 130.4 178.8 132.2 182.2 134.6C186.5 137.6 189.9 141.6 192.3 146.6C194.7 151.6 196.1 156.7 196.4 161.9C196.5 162.4 196.5 162.8 196.5 163.3V166.2C196.3 171.7 195 177 192.6 182.1C190.2 187.2 186.6 191.5 182.1 194.8ZM149.7 185.1C149.9 185.1 150.2 185.1 150.4 185.2H151.2C151.5 185.2 151.8 185.2 152 185.3H155.1C156 185.2 156.8 185.1 157.5 185.1C159.5 184.9 161.5 184.6 163.4 184.1C165.3 183.6 167.1 182.7 168.6 181.7C171.1 179.9 172.9 177.5 174.1 174.5C175.3 171.4 176 168.2 176 164.9V164C176 163.7 176 163.4 175.9 163.1C175.7 160.2 175 157.3 173.8 154.6C172.6 151.8 170.9 149.6 168.7 148C167.1 146.7 165.2 145.8 163.2 145.3C161.2 144.8 159.2 144.6 157.2 144.5H149.7V185.1ZM69.8 201.7V127.7H115.2V143.8H89.6V156.8H113.6V172.6H89.6V185.1H115.1V201.7H69.8ZM10.4 177.9C10.5 178 10.5 178.1 10.5 178.1C10.6 178.1 10.7 178.1 10.7 178.2C12.8 180.5 15.2 182.7 17.8 184.7C20.4 186.6 23.5 187.7 26.9 187.8C27 187.8 27.1 187.8 27.1 187.9H27.4C27.5 187.9 27.6 187.9 27.6 188H28.9C29.3 187.9 29.6 187.8 29.9 187.8C31.1 187.6 32.3 187.1 33.4 186.4C34.6 185.7 35.5 184.9 36.1 183.8L36.3 183.3L36.5 182.8C36.7 182.3 36.8 181.8 36.8 181.3C36.9 180.8 36.9 180.4 36.9 180C36.9 177.9 36 176.2 34.1 174.8C32.4 173.4 30.4 172.2 28.3 171.4C27.5 171.1 26.7 170.9 25.9 170.7C25.2 170.5 24.4 170.3 23.7 170.1H23.5C23.4 170 23.3 170 23.3 170C19.5 169.1 15.9 167.6 12.6 165.6C9.3 163.5 7 160.5 5.7 156.7C5.5 155.9 5.2 155.1 5 154.3C4.8 153.4 4.7 152.5 4.7 151.6C4.7 151.5 4.7 151.2 4.7 151V148.2C4.8 147.6 4.9 147 5 146.3C5.2 144.7 5.6 143.2 6.2 141.7C6.7 140.2 7.4 138.8 8.3 137.5C10.8 133.4 14 130.5 17.8 128.7C21.7 126.9 25.9 126 30.1 126C31.1 126 32.1 126.1 33.1 126.2C34.2 126.3 35.3 126.4 36.4 126.5C39.2 127 42 127.8 44.6 128.8C47.4 129.9 49.9 131.2 52.3 132.6L45.9 146.9C43.8 145.4 41.6 144 39.3 142.8C37 141.6 34.5 141.1 31.8 141.1H30.9C29.1 141.3 27.5 142.1 25.9 143.5C24.4 144.8 23.6 146.2 23.6 147.8V148.5C23.7 148.7 23.8 149 23.9 149.2C24.1 149.7 24.3 150.2 24.7 150.7C25.1 151.2 25.5 151.6 26 152C26.9 152.7 28.1 153.4 29.7 154C31.3 154.5 33 155.1 34.8 155.6C36.3 156 37.7 156.4 39.1 156.8C40.5 157.1 41.7 157.4 42.6 157.7C46.9 159.2 50.2 161.8 52.4 165.5C54.6 169.1 55.7 172.9 55.8 176.9V177.5C55.8 178 55.8 178.4 55.7 178.9V180.2C55.2 184.2 53.9 188.1 51.8 191.7C49.7 195.3 46.9 198.1 43.3 200.1C42 200.7 40.6 201.3 39.2 201.7C37.8 202.1 36.4 202.4 35 202.7C33.9 202.9 32.7 203.1 31.5 203.2C30.4 203.4 29.3 203.4 28.1 203.4H26.7C22.1 203.2 17.5 202.2 13 200.4C8.5 198.5 4.5 195.9 1 192.7L10.4 177.9ZM352 325C352 324.7 352.1 324.4 352.2 324.1C352.3 323.8 352.5 323.5 352.7 323.3C352.9 323.1 353.2 322.9 353.5 322.7C353.8 322.6 354.2 322.5 354.6 322.5C355.1 322.5 355.5 322.6 355.9 322.8C356.3 323 356.7 323.2 357 323.5C357.2 323.8 357.4 324.1 357.6 324.5C357.7 324.9 357.8 325.3 357.8 325.8C357.8 326.7 357.6 327.4 357.3 328.2C357 328.9 356.6 329.6 356 330.1C355.7 330.4 355.5 330.6 355.2 330.8C354.9 331 354.6 331.2 354.3 331.3C354 331.4 353.8 331.6 353.6 331.7C353.5 331.8 353.4 331.8 353.2 331.9L351.8 329.9C352 329.8 352.3 329.7 352.6 329.5C352.9 329.4 353.2 329.2 353.5 329C353.8 328.8 354 328.5 354.2 328.2C354.4 327.9 354.5 327.6 354.5 327.2C353.9 327.2 353.3 327 352.8 326.6C352.2 326.3 352 325.8 352 325ZM359.8 325C359.8 324.7 359.9 324.4 360 324.1C360.1 323.8 360.3 323.5 360.5 323.3C360.7 323.1 361 322.9 361.3 322.7C361.6 322.6 362 322.5 362.4 322.5C362.9 322.5 363.3 322.6 363.7 322.8C364.1 323 364.5 323.2 364.8 323.5C365 323.8 365.2 324.1 365.4 324.5C365.5 324.9 365.6 325.3 365.6 325.8C365.6 326.6 365.5 327.4 365.1 328.2C364.8 328.9 364.4 329.6 363.8 330.1C363.5 330.4 363.3 330.6 363 330.8C362.7 331 362.4 331.2 362.1 331.3C361.8 331.4 361.6 331.6 361.4 331.7C361.3 331.8 361.2 331.8 361 331.9L359.7 329.9C359.9 329.8 360.2 329.7 360.5 329.5C360.8 329.4 361.1 329.2 361.4 329C361.7 328.8 361.9 328.5 362.1 328.2C362.3 327.9 362.4 327.6 362.4 327.2C361.8 327.2 361.2 327 360.7 326.6C360 326.3 359.8 325.8 359.8 325ZM95.2 266.3C95.2 266.6 95.1 266.9 95 267.2C94.9 267.5 94.7 267.8 94.5 268C94 268.5 93.3 268.8 92.6 268.8C92.2 268.8 91.7 268.7 91.3 268.5C90.9 268.3 90.5 268.1 90.2 267.8C89.9 267.5 89.7 267.1 89.6 266.8C89.5 266.4 89.4 266 89.4 265.5C89.4 264.6 89.6 263.9 89.9 263.1C90.2 262.4 90.6 261.7 91.2 261.2C91.5 260.9 91.7 260.7 92 260.5C92.3 260.3 92.6 260.1 92.9 260C93.2 259.9 93.4 259.7 93.6 259.6C93.8 259.5 93.9 259.5 94 259.4L95.3 261.4C95 261.5 94.7 261.6 94.5 261.8C94.2 261.9 93.9 262.1 93.6 262.3C93.3 262.5 93.1 262.8 92.9 263.1C92.7 263.4 92.6 263.7 92.6 264.1C93.3 264.1 93.8 264.3 94.3 264.7C95 265.1 95.2 265.6 95.2 266.3ZM87.4 266.3C87.4 266.9 87.2 267.5 86.7 268C86.5 268.2 86.2 268.4 85.9 268.6C85.6 268.7 85.2 268.8 84.8 268.8C84.4 268.8 83.9 268.7 83.5 268.5C83.1 268.3 82.7 268.1 82.4 267.8C82.1 267.5 81.9 267.1 81.8 266.8C81.7 266.4 81.6 266 81.6 265.5C81.6 264.6 81.8 263.9 82.1 263.1C82.4 262.4 82.8 261.7 83.4 261.2C83.6 261 83.9 260.7 84.2 260.5C84.5 260.3 84.8 260.1 85.1 260C85.4 259.9 85.6 259.7 85.8 259.6C86 259.5 86.1 259.5 86.2 259.4L87.5 261.4C87.3 261.5 87 261.6 86.7 261.8C86.4 261.9 86.1 262.1 85.8 262.3C85.5 262.5 85.3 262.8 85.1 263.1C84.9 263.4 84.8 263.7 84.8 264.1C85.5 264.1 86 264.3 86.5 264.7C87.1 265.1 87.4 265.6 87.4 266.3ZM332.7 323.2H336.5L348.3 302.6H344.5L332.7 323.2ZM332.6 324.7C331.4 324.7 330.4 325.7 330.4 326.9C330.4 328.1 331.3 329.1 332.6 329.1C333.8 329.1 334.8 328.2 334.8 326.9C334.8 325.6 333.8 324.7 332.6 324.7ZM306.2 319.2L307.3 317.3C311.7 311.2 314.6 312.9 313.3 315.2L311.5 318.3C310.4 320.2 307 321.6 306.2 319.2ZM331.3 322.1C331.1 321.5 330.4 320.9 329.9 320.8L329.6 321.1C328.3 322.7 326.7 324 325.1 325.2C326.3 321.6 326 316.1 328.4 311.2L325.6 309.7C324 311.8 320.6 316.8 317.2 320.8L316.9 321.1C314.2 324.3 311.5 326.8 309.9 326.8C309.1 326.8 308.3 326 308.3 324.3V322.7C311 323 313.8 321.3 315.5 318.2L316.5 316.5C320 310.5 314.3 308.5 310.4 312L315.8 302.7H312L301.2 321.4C301 321.2 300.8 321.1 300.5 320.9L300.2 321.2C297.5 324.4 294 326.9 291.3 326.9C289 326.9 287.6 325.4 289.3 322.4L293.2 315.6C295.4 311.9 299.2 312.5 297 316.4L296.5 317.3H299.6L300.1 316.4C302.1 312.9 300.2 310.3 297.1 310.3C294 310.3 291.6 311.9 290 314.7L286.3 321.1C286.2 321.1 286.1 321 286.1 321L285.8 321.3C283.1 324.5 280.4 327 278.8 327C278 327 277.5 326.4 278.4 324.9L286.5 310.8H282.7L276 322.5C273.1 325.1 270.9 326.6 270.2 326.2C269.3 325.8 270.2 324.4 270.7 323.6L278.1 310.7H274.3L267 323.4C266.2 324.1 264.6 324.8 263.8 325.3C265 321.7 264.7 316.2 267.1 311.3L264.3 309.8C262.7 311.9 254 323.5 250.6 327.5C250.9 328 251.5 328.4 252 328.8C254.1 326.3 261.3 317.1 262.7 315.3C261.2 319.2 262 326.3 258.4 326.3C257.1 326.3 256.6 324.9 256.6 324.9L254.2 326.1C254.2 326.1 254.9 329.1 258.3 329.1C258.7 329.1 259 329.1 259.4 329H259.5C261.4 328.7 264.1 327.9 265.9 326.6C265.9 328.1 266.8 329.1 268.4 329.1C270.5 329.1 272.8 327.2 274.6 325.5C274.2 327.5 275.4 329.1 277.8 329.1C280.1 329.1 282.8 327.2 285.2 324.7C285.2 327.2 287.2 329.1 290.3 329.1C293.4 329.1 296.4 327.4 299 325.1L296.9 328.8H300.7L305 321.3V324.3C305 327.5 305.6 329.2 308.7 329.2C311.8 329.2 315.4 325.9 318.5 322.2C320.6 319.7 322.5 317.1 323.9 315.3C322.4 319.2 323.2 326.3 319.6 326.3C318.3 326.3 317.8 324.9 317.8 324.9L315.4 326.1C315.4 326.1 316.1 329.1 319.5 329.1C319.9 329.1 320.2 329.1 320.6 329H320.7C324.7 328.5 328.5 325.4 331.3 322.1ZM216.7 321H216.5C215.3 321 214.3 322 214.3 323.3C214.3 323.8 214.4 324.2 214.7 324.6V324.7C212.9 327.7 208.6 327.2 210.8 323.2L213.7 318.2L215.5 315.1C218.2 310.6 221.8 312.4 219.5 316.3L216.7 321ZM191.3 335.2C190.5 336.6 189.2 336.4 189.2 335.4C189.2 334.4 190.1 333.3 193 332.2L191.3 335.2ZM162.5 321.4C160.2 325 158 326.7 156.4 326.7C155.6 326.7 155.1 326.1 156 324.6L161.3 315.4C163.3 311.9 167.4 312.8 165.5 316.2L162.5 321.4ZM150.5 306.7C151.6 304.8 152.9 303.9 153.9 303.9C155.3 303.9 156 304.8 156 306.2C156 309.7 151.6 317 145.8 316.1H145L150.5 306.7ZM243.3 320.8L243 321.1C240.3 324.3 237.6 326.8 236 326.8C235.2 326.8 234.7 326.2 235.6 324.7L241 315.1C242.6 312.2 241.1 310.2 239 310.2C237.4 310.2 235.7 311.1 233.8 313L235.2 310.5H231.4L225.3 321C225.1 320.9 225 320.8 224.8 320.7L224.5 321C222.8 322.9 220.7 323.8 218.8 323.8L222.4 317.7C224.7 313.7 222.6 310 219 310C216.1 310 213.8 311.2 211.7 314.9L209.8 318.1L208.2 320.9C208.1 320.8 208 320.8 207.9 320.7L207.6 321C204.5 324.6 201.8 326.9 198.8 328.2L209.2 310.5H205.4L198.7 322.1C195.8 324.8 193.5 326.3 192.8 326C191.9 325.6 192.8 324.2 193.3 323.4L200.7 310.5H196.9L190.9 320.9C190.8 320.8 190.7 320.8 190.6 320.7L190.3 321C187.6 324.2 184.9 326.7 183.3 326.7C182.5 326.7 182 326.1 182.9 324.6L188.3 315C189.9 312.1 188.4 310.1 186.3 310.1C184.7 310.1 183 311 181.1 312.9L182.5 310.4H178.7L172.7 320.8C172.6 320.7 172.5 320.7 172.3 320.6L172 320.9C169.3 324.1 166.6 326.6 165 326.6C164.2 326.6 163.7 326 164.6 324.5L170.7 313.8H168.6C168.7 312.2 167.1 310 164.6 310C162.6 310 159.7 311.6 158.1 314.4L154.2 321.1C153.9 320.9 153.6 320.7 153.4 320.6L153.1 320.9C150.4 324.1 148.3 326.6 144.5 326.6C141.9 326.6 140.4 324 142.6 320.2L143.7 318.3C144.4 318.4 145.1 318.5 145.8 318.5C149.8 318.5 154.4 316.4 157.4 311.2C158.5 309.3 158.9 307.6 158.9 306.1C158.9 302.7 156.7 300.5 153.9 300.5C151.8 300.5 149.4 302 147.7 304.9L141.8 315C139.6 313.8 138.4 311.7 138.4 309.6C138.4 307.9 139.2 306.1 140.8 304.8L139.6 302.6C136.9 304.5 135.7 307.1 135.7 309.6C135.7 312.6 137.4 315.5 140.5 317.1L139.4 319.1C136.7 323.7 138.3 328.8 143.6 328.8C147.8 328.8 149.7 326.9 152.3 324.4C151.5 326.8 152.7 328.8 155.3 328.8C156.8 328.8 158.7 327.8 160.5 326.3C160.7 327.8 161.8 328.8 163.8 328.8C165.6 328.8 167.6 327.7 169.5 326L168.1 328.4H171.9L177.7 318.3C183.5 311.1 186.1 312 184.4 314.8L179.5 323.3C177.9 326.1 179 328.7 182.1 328.7C184.1 328.7 186.4 327.3 188.5 325.3C188 327.4 189 328.7 190.9 328.7C192.7 328.7 194.8 327.2 196.5 325.7L194.4 329.3C189.3 330.8 186.1 332.9 186.1 335.8C186.1 339.4 191.7 340.2 194.4 335.5L197.3 330.5C200.5 329.5 203.6 327.5 206.8 324.3C206.3 329.6 213.3 330.8 217.5 325.4H218.3C219.7 325.4 221.5 324.9 223.2 323.9L220.7 328.3H224.5L230.3 318.2C236.1 311 238.7 311.9 237 314.7L232.1 323.2C230.5 326 231.6 328.6 234.7 328.6C237.8 328.6 241.4 325.3 244.5 321.6C244.4 321.6 243.8 321 243.3 320.8ZM361.9 285.2C359.6 288.9 357.3 290.7 355.7 290.7C354.9 290.7 354.4 290.1 355.3 288.6L360.6 279.4C362.6 275.9 366.7 276.8 364.8 280.2L361.9 285.2ZM325.7 285.4C323.4 289 321.2 290.7 319.6 290.7C318.8 290.7 318.3 290.1 319.2 288.6L324.5 279.4C326.5 275.9 330.6 276.8 328.7 280.2L325.7 285.4ZM285.8 299.2C285 300.6 283.7 300.4 283.7 299.4C283.7 298.4 284.6 297.3 287.5 296.2L285.8 299.2ZM293.8 270.7C294.9 268.8 296.2 267.9 297.2 267.9C303.2 267.9 298.7 282.3 289.1 280.1H288.3L293.8 270.7ZM371.5 284.8L371.2 285.1C368.5 288.3 365.8 290.8 364.2 290.8C363.4 290.8 362.9 290.2 363.8 288.7L376.6 266.6H372.8L367.2 276.2C366.5 275.1 365.3 274.2 363.7 274.2C361.7 274.2 358.8 275.8 357.2 278.6L353.5 285C353.4 285 353.3 284.9 353.3 284.9L353 285.2C350.3 288.4 348 290.9 346.3 290.9C345.5 290.9 345 290.3 345.9 288.8L351.4 279.2C353 276.3 351.5 274.3 349.4 274.3C347.8 274.3 346.1 275.2 344.2 277.1L345.6 274.6H341.8L335.8 285C335.7 284.9 335.6 284.9 335.4 284.8L335.1 285.1C332.4 288.3 329.7 290.8 328.1 290.8C327.3 290.8 326.8 290.2 327.7 288.7L333.8 278H331.7C331.8 276.4 330.2 274.2 327.7 274.2C325.7 274.2 322.8 275.8 321.2 278.6L317.5 284.9L317.3 285.1C314.6 288.3 311.5 290.8 309.9 290.8C309.1 290.8 308.6 290.2 309.5 288.7L313.3 282.1C314.6 279.8 314 278.5 312.8 277L310.7 274.5C310.2 273.8 310.2 273 310.9 272.3L308.9 270.2C306.8 272.1 306.6 274.3 307.9 276L308.2 276.4C306.5 278.8 304.3 282 301.8 284.9C301.9 285 302 285.1 302.1 285.2C299 288.8 296.3 291.1 293.4 292.4L298.2 284.2H294.4L294 284.9C292 288.4 289.7 290.9 286.8 290.9C284.2 290.9 283.8 288.3 286 284.5L287.1 282.6C287.8 282.7 288.5 282.8 289.2 282.8C302.6 282.8 309.1 264.8 297.3 264.8C295.2 264.8 292.8 266.3 291.1 269.2L285.2 279.3C283 278.1 281.8 276 281.8 273.9C281.8 272.2 282.6 270.4 284.2 269.1L283 266.9C280.3 268.8 279.1 271.4 279.1 273.9C279.1 276.9 280.8 279.8 283.9 281.4L282.8 283.4C280.1 288 280.6 293.1 286 293.1C287.6 293.1 288.9 292.6 290.1 291.9L289.1 293.6C284 295.2 280.8 297.2 280.8 300.1C280.8 303.7 286.4 304.5 289.1 299.8L292 294.8C295.9 293.6 299.8 290.9 303.9 286.1C303.8 286 303.8 285.9 303.7 285.7C305.4 283.7 306.8 281.8 309.7 278L310.2 278.6C310.7 279.2 310.9 280 310.4 280.7L306.4 287.6C304.8 290.4 305.9 293 309 293C310.9 293 313.3 291.8 315.4 290C315.4 291.7 316.5 293 318.7 293C320.2 293 322.1 292 323.9 290.5C324.1 292 325.2 293 327.2 293C329 293 331 291.9 332.9 290.2L331.5 292.6H335.3L341.1 282.5C346.9 275.3 349.5 276.2 347.8 279L342.9 287.5C341.3 290.3 342.4 292.9 345.5 292.9C347.5 292.9 349.3 291.5 351.5 289.6C351.3 291.5 352.5 292.9 354.8 292.9C356.3 292.9 358.2 291.9 360 290.4C360.2 291.9 361.3 292.9 363.3 292.9C366.4 292.9 370 289.6 373.1 285.9C372.6 285.6 372 285 371.5 284.8ZM259.2 279.5C261.4 275.8 265.2 276.4 263 280.3L262.5 281.2C260.7 284.3 258.2 284.2 256.8 283.7L259.2 279.5ZM256.2 293.1C260.5 293.1 264.7 289.8 267.9 286.1C267.6 285.6 267 285 266.5 284.8L266.2 285.1C263.5 288.3 260 290.8 257.3 290.8C255 290.8 253.6 289.3 255.3 286.3L255.7 285.6C258.1 286.6 262.7 286.1 265.5 281.2L266 280.3C268 276.8 266.1 274.2 263 274.2C260 274.2 257.5 275.8 255.9 278.6L252.2 284.9C252.2 284.9 252.1 284.9 252.1 284.8L251.8 285.1C249.1 288.3 246.4 290.8 244.8 290.8C244 290.8 243.5 290.2 244.4 288.7L249.8 279.1C251.4 276.2 249.9 274.2 247.8 274.2C246.2 274.2 244.4 275.1 242.5 277.1L248.5 266.6H244.7L234 285.1C233.9 285 233.7 284.9 233.6 284.8L233.3 285.1C230.6 288.3 227.9 290.8 226.3 290.8C225.5 290.8 225 290.2 225.9 288.7L234 274.6H237.1L238.2 272.8H235.1L238.7 266.6H234.9L231.3 272.8H227.9L226.8 274.6H230.2L222.6 287.8C221 290.6 222.1 293.2 225.2 293.2C227.1 293.2 229.1 292 231.1 290.2L229.6 292.8H233.4L239.1 282.8C244.9 275.5 247.5 276.4 245.9 279.2L241 287.7C239.4 290.5 240.5 293.1 243.6 293.1C245.9 293.1 248.4 291.3 250.9 288.9C251.1 291.3 253.1 293.1 256.2 293.1ZM128.7 279.5C130.9 275.8 134.7 276.4 132.5 280.3L132 281.2C130.2 284.3 127.7 284.2 126.3 283.7L128.7 279.5ZM151.8 288.7L157.1 279.5C159.1 276 163.2 276.9 161.3 280.3L158.4 285.5C156.1 289.1 153.9 290.8 152.3 290.8C151.4 290.7 150.9 290.2 151.8 288.7ZM205.8 279.5C208 275.8 211.8 276.4 209.6 280.3L209.1 281.2C207.3 284.3 204.9 284.2 203.4 283.7L205.8 279.5ZM148 289C147.4 291.2 148.6 293.1 151.1 293.1C152.6 293.1 154.5 292.1 156.3 290.6C156.5 292.1 157.6 293.1 159.6 293.1C161.6 293.1 163.8 291.7 166 289.8C165.6 291.8 166.5 293.1 168.4 293.1C170.5 293.1 172.8 291.2 174.6 289.5C174.2 291.5 175.4 293.1 177.8 293.1C180.9 293.1 184.5 289.8 187.6 286.1C187.6 286.1 187.5 286 187.5 285.9C189.6 283.5 191.4 280.9 192.7 279.1C191.2 283 192 290.1 188.4 290.1C187.1 290.1 186.6 288.7 186.6 288.7L184.2 289.9C184.2 289.9 184.9 293 188.3 293C188.7 293 189 293 189.4 292.9H189.5C192.3 292.5 195 290.8 197.4 288.7C197.5 291.2 199.4 293 202.5 293C206.8 293 211 289.7 214.2 286C213.9 285.5 213.3 284.9 212.8 284.7L212.5 285C209.8 288.2 206.3 290.7 203.6 290.7C201.3 290.7 199.9 289.2 201.6 286.2L202 285.5C204.4 286.5 209 286 211.8 281.1L212.3 280.2C214.3 276.7 212.4 274.1 209.3 274.1C206.2 274.1 203.8 275.7 202.2 278.5L198.5 284.8H198.4L198.1 285.1C196.8 286.7 195.2 288 193.6 289.2C194.8 285.6 194.5 280.1 196.9 275.2L194.1 273.7C192.5 275.8 189.1 280.8 185.7 284.8L185.8 284.9L185.7 285.1C183 288.3 180.3 290.8 178.7 290.8C177.9 290.8 177.4 290.2 178.3 288.7L186.4 274.6H182.6L175.9 286.3C173 288.9 170.8 290.4 170.1 290C169.2 289.6 170.1 288.2 170.6 287.4L178 274.5H174.2L168.2 284.9C168.1 284.8 168 284.8 167.9 284.7L167.6 285C164.9 288.2 162.2 290.7 160.6 290.7C159.8 290.7 159.3 290.1 160.2 288.6L166.3 277.9H164.2C164.3 276.3 162.7 274.1 160.2 274.1C158.2 274.1 155.3 275.7 153.7 278.5L149.9 285.1C149.7 285 149.5 284.8 149.3 284.7L149 285C146.3 288.2 143.1 290.7 140.5 290.7C138.2 290.7 136.8 289.2 138.5 286.2L142.4 279.4C144.6 275.7 148.4 276.3 146.2 280.2L145.7 281.1H148.8L149.3 280.2C151.3 276.7 149.4 274.1 146.3 274.1C143.2 274.1 141.2 275.7 139.6 278.5L135.8 284.9C135.7 284.8 135.6 284.8 135.5 284.7L135.2 285C132.5 288.2 129.3 290.7 126.6 290.7C124.3 290.7 122.9 289.2 124.6 286.2L125 285.5C127.4 286.5 132 286 134.8 281.1L135.3 280.2C137.3 276.7 135.4 274.1 132.3 274.1C129.2 274.1 126.8 275.7 125.2 278.5L121.2 285.3C118.8 289.3 120.9 293 125.3 293C128.6 293 131.3 291 134.1 288.4C134 291 136 293 139.2 293C142.6 293.1 145.3 291.3 148 289ZM111.1 275L114.2 269.8C117 265 120.5 267.8 118.6 271.4C117.1 274.1 115 275 111.1 275ZM107 292.3C104.7 292.3 103 291.8 101.6 291C102.3 290.2 102.9 289.3 103.5 288.3L109.9 277.3L110.9 277.4C119.7 279.2 116.2 292.3 107 292.3ZM116.4 276.8C124 274.2 124.6 264.7 117.1 264.7C115 264.7 112.6 266.2 110.9 269.1L100.7 286.7C100.3 287.5 99.8 288.2 99.2 288.8C96.6 285.2 97.3 279.8 101 277.5L99.5 275.6C91.6 280.6 93.9 295.2 107.1 295.2C118.4 295.2 123.6 281.6 116.4 276.8Z" fill="white"/>
<path d="M381.4 201.7L406.8 127.7H432L457.7 201.7H437.5L433.8 188.3H405.2L401.4 201.7H381.4ZM417.1 149.6L409.6 174.1H429.7L422.2 149.6C421.8 148.4 421.4 147.2 421 146C420.7 144.7 420.4 143.5 420.2 142.2C420 141.7 419.9 141.3 419.9 140.9C419.8 140.4 419.7 140 419.7 139.6C419.6 140 419.5 140.4 419.4 140.9C419.3 141.3 419.2 141.7 419.2 142.2C419.1 142.4 419.1 142.5 419.1 142.7C419.1 142.8 419.1 142.9 419 143C418.8 144.1 418.5 145.3 418.2 146.4C417.7 147.4 417.4 148.5 417.1 149.6ZM299.4 201.7V127.7H318.9L346.8 165.7C347.5 166.8 348.2 168 348.8 169.2C349.5 170.4 350.2 171.6 350.8 172.8L352.2 175.8C352.7 176.8 353.1 177.8 353.6 178.7C353.5 177.9 353.4 177.1 353.3 176.3C353.2 175.5 353.1 174.7 353.1 173.9C352.9 172.3 352.8 170.7 352.8 169.1C352.7 167.4 352.7 165.8 352.7 164.1V127.8H372.1V201.8H352.7L324.6 163.6C323.8 162.7 323.1 161.6 322.4 160.3C321.7 159 321 157.6 320.4 156.2C320 155.2 319.5 154.3 319 153.3C318.6 152.4 318.3 151.4 317.8 150.5C318.2 152.9 318.5 155.3 318.7 157.8C318.9 160.3 319 162.8 319 165.2V201.7H299.4ZM211.4 146.8C215 140.2 219.9 135.2 226.3 131.7C232.7 128.2 239.3 126.5 246.2 126.5C247.1 126.5 248.1 126.5 249 126.6C250 126.7 251 126.8 251.9 126.8C254.8 127.2 257.6 127.9 260.4 128.9C263.3 129.9 266 131.2 268.5 132.8C274 136.4 278.3 141.1 281.3 147.1C284.3 153 285.8 159.1 285.8 165.6C285.8 166.4 285.8 167.2 285.7 168C285.7 168.8 285.6 169.5 285.5 170.3C285.3 172 285 173.6 284.6 175.2C284.2 176.8 283.7 178.3 283.1 179.8C279.8 187.3 274.8 193.2 267.9 197.3C261 201.4 253.8 203.5 246.2 203.5C245.7 203.5 245.1 203.5 244.6 203.4H243.1C240.4 203.2 237.8 202.7 235.2 202C232.6 201.3 230.1 200.3 227.8 199.1C221.3 195.7 216.2 190.9 212.5 184.6C208.8 178.3 206.9 171.7 206.9 164.9C206.9 163.9 206.9 162.9 207 161.9C207.1 160.9 207.2 159.8 207.5 158.8C207.9 156.8 208.4 154.7 209.1 152.8C209.5 150.6 210.4 148.7 211.4 146.8ZM264.2 173.4C264.4 172.6 264.6 171.8 264.8 171C265 170.1 265.2 169.3 265.3 168.4C265.4 167.9 265.4 167.3 265.4 166.8C265.5 166.3 265.5 165.8 265.5 165.3C265.5 164.8 265.5 164.4 265.4 163.9V162.5C265 159.2 264 156 262.4 152.9C260.8 149.8 258.5 147.4 255.7 145.7C254.9 145.3 254.2 145 253.4 144.7C252.6 144.4 251.9 144.1 251.1 143.9C250.3 143.7 249.6 143.6 248.8 143.6C248 143.4 247.3 143.4 246.5 143.4C242.6 143.4 238.9 144.6 235.6 147.1C232.3 149.6 229.9 152.9 228.6 157L228.4 157.5V158C228.2 158.7 228 159.5 227.8 160.2C227.6 160.9 227.5 161.6 227.3 162.4L227.1 164V166.4C227.1 166.6 227.1 166.9 227.2 167.2C227.4 171.3 228.7 175.2 230.9 178.9C233.2 182.5 236.4 184.9 240.4 186.1L241.8 186.6C242.3 186.7 242.8 186.8 243.3 186.8L244.7 187H246.1C250.2 187 253.9 185.8 257.1 183.4C260.4 180.8 262.8 177.5 264.2 173.4ZM182.1 194.8C178.5 197.3 174.5 199 170.3 199.9C166.1 200.8 161.7 201.4 157.4 201.6C156.2 201.7 154.9 201.7 153.7 201.7H129.9V127.7H155C156.2 127.7 157.4 127.7 158.6 127.8C162.8 128 166.9 128.6 170.9 129.5C175 130.4 178.8 132.2 182.2 134.6C186.5 137.6 189.9 141.6 192.3 146.6C194.7 151.6 196.1 156.7 196.4 161.9C196.5 162.4 196.5 162.8 196.5 163.3V166.2C196.3 171.7 195 177 192.6 182.1C190.2 187.2 186.6 191.5 182.1 194.8ZM149.7 185.1C149.9 185.1 150.2 185.1 150.4 185.2H151.2C151.5 185.2 151.8 185.2 152 185.3H155.1C156 185.2 156.8 185.1 157.5 185.1C159.5 184.9 161.5 184.6 163.4 184.1C165.3 183.6 167.1 182.7 168.6 181.7C171.1 179.9 172.9 177.5 174.1 174.5C175.3 171.4 176 168.2 176 164.9V164C176 163.7 176 163.4 175.9 163.1C175.7 160.2 175 157.3 173.8 154.6C172.6 151.8 170.9 149.6 168.7 148C167.1 146.7 165.2 145.8 163.2 145.3C161.2 144.8 159.2 144.6 157.2 144.5H149.7V185.1ZM69.8 201.7V127.7H115.2V143.8H89.6V156.8H113.6V172.6H89.6V185.1H115.1V201.7H69.8ZM10.4 177.9C10.5 178 10.5 178.1 10.5 178.1C10.6 178.1 10.7 178.1 10.7 178.2C12.8 180.5 15.2 182.7 17.8 184.7C20.4 186.6 23.5 187.7 26.9 187.8C27 187.8 27.1 187.8 27.1 187.9H27.4C27.5 187.9 27.6 187.9 27.6 188H28.9C29.3 187.9 29.6 187.8 29.9 187.8C31.1 187.6 32.3 187.1 33.4 186.4C34.6 185.7 35.5 184.9 36.1 183.8L36.3 183.3L36.5 182.8C36.7 182.3 36.8 181.8 36.8 181.3C36.9 180.8 36.9 180.4 36.9 180C36.9 177.9 36 176.2 34.1 174.8C32.4 173.4 30.4 172.2 28.3 171.4C27.5 171.1 26.7 170.9 25.9 170.7C25.2 170.5 24.4 170.3 23.7 170.1H23.5C23.4 170 23.3 170 23.3 170C19.5 169.1 15.9 167.6 12.6 165.6C9.3 163.5 7 160.5 5.7 156.7C5.5 155.9 5.2 155.1 5 154.3C4.8 153.4 4.7 152.5 4.7 151.6C4.7 151.5 4.7 151.2 4.7 151V148.2C4.8 147.6 4.9 147 5 146.3C5.2 144.7 5.6 143.2 6.2 141.7C6.7 140.2 7.4 138.8 8.3 137.5C10.8 133.4 14 130.5 17.8 128.7C21.7 126.9 25.9 126 30.1 126C31.1 126 32.1 126.1 33.1 126.2C34.2 126.3 35.3 126.4 36.4 126.5C39.2 127 42 127.8 44.6 128.8C47.4 129.9 49.9 131.2 52.3 132.6L45.9 146.9C43.8 145.4 41.6 144 39.3 142.8C37 141.6 34.5 141.1 31.8 141.1H30.9C29.1 141.3 27.5 142.1 25.9 143.5C24.4 144.8 23.6 146.2 23.6 147.8V148.5C23.7 148.7 23.8 149 23.9 149.2C24.1 149.7 24.3 150.2 24.7 150.7C25.1 151.2 25.5 151.6 26 152C26.9 152.7 28.1 153.4 29.7 154C31.3 154.5 33 155.1 34.8 155.6C36.3 156 37.7 156.4 39.1 156.8C40.5 157.1 41.7 157.4 42.6 157.7C46.9 159.2 50.2 161.8 52.4 165.5C54.6 169.1 55.7 172.9 55.8 176.9V177.5C55.8 178 55.8 178.4 55.7 178.9V180.2C55.2 184.2 53.9 188.1 51.8 191.7C49.7 195.3 46.9 198.1 43.3 200.1C42 200.7 40.6 201.3 39.2 201.7C37.8 202.1 36.4 202.4 35 202.7C33.9 202.9 32.7 203.1 31.5 203.2C30.4 203.4 29.3 203.4 28.1 203.4H26.7C22.1 203.2 17.5 202.2 13 200.4C8.5 198.5 4.5 195.9 1 192.7L10.4 177.9ZM352 325C352 324.7 352.1 324.4 352.2 324.1C352.3 323.8 352.5 323.5 352.7 323.3C352.9 323.1 353.2 322.9 353.5 322.7C353.8 322.6 354.2 322.5 354.6 322.5C355.1 322.5 355.5 322.6 355.9 322.8C356.3 323 356.7 323.2 357 323.5C357.2 323.8 357.4 324.1 357.6 324.5C357.7 324.9 357.8 325.3 357.8 325.8C357.8 326.7 357.6 327.4 357.3 328.2C357 328.9 356.6 329.6 356 330.1C355.7 330.4 355.5 330.6 355.2 330.8C354.9 331 354.6 331.2 354.3 331.3C354 331.4 353.8 331.6 353.6 331.7C353.5 331.8 353.4 331.8 353.2 331.9L351.8 329.9C352 329.8 352.3 329.7 352.6 329.5C352.9 329.4 353.2 329.2 353.5 329C353.8 328.8 354 328.5 354.2 328.2C354.4 327.9 354.5 327.6 354.5 327.2C353.9 327.2 353.3 327 352.8 326.6C352.2 326.3 352 325.8 352 325ZM359.8 325C359.8 324.7 359.9 324.4 360 324.1C360.1 323.8 360.3 323.5 360.5 323.3C360.7 323.1 361 322.9 361.3 322.7C361.6 322.6 362 322.5 362.4 322.5C362.9 322.5 363.3 322.6 363.7 322.8C364.1 323 364.5 323.2 364.8 323.5C365 323.8 365.2 324.1 365.4 324.5C365.5 324.9 365.6 325.3 365.6 325.8C365.6 326.6 365.5 327.4 365.1 328.2C364.8 328.9 364.4 329.6 363.8 330.1C363.5 330.4 363.3 330.6 363 330.8C362.7 331 362.4 331.2 362.1 331.3C361.8 331.4 361.6 331.6 361.4 331.7C361.3 331.8 361.2 331.8 361 331.9L359.7 329.9C359.9 329.8 360.2 329.7 360.5 329.5C360.8 329.4 361.1 329.2 361.4 329C361.7 328.8 361.9 328.5 362.1 328.2C362.3 327.9 362.4 327.6 362.4 327.2C361.8 327.2 361.2 327 360.7 326.6C360 326.3 359.8 325.8 359.8 325ZM95.2 266.3C95.2 266.6 95.1 266.9 95 267.2C94.9 267.5 94.7 267.8 94.5 268C94 268.5 93.3 268.8 92.6 268.8C92.2 268.8 91.7 268.7 91.3 268.5C90.9 268.3 90.5 268.1 90.2 267.8C89.9 267.5 89.7 267.1 89.6 266.8C89.5 266.4 89.4 266 89.4 265.5C89.4 264.6 89.6 263.9 89.9 263.1C90.2 262.4 90.6 261.7 91.2 261.2C91.5 260.9 91.7 260.7 92 260.5C92.3 260.3 92.6 260.1 92.9 260C93.2 259.9 93.4 259.7 93.6 259.6C93.8 259.5 93.9 259.5 94 259.4L95.3 261.4C95 261.5 94.7 261.6 94.5 261.8C94.2 261.9 93.9 262.1 93.6 262.3C93.3 262.5 93.1 262.8 92.9 263.1C92.7 263.4 92.6 263.7 92.6 264.1C93.3 264.1 93.8 264.3 94.3 264.7C95 265.1 95.2 265.6 95.2 266.3ZM87.4 266.3C87.4 266.9 87.2 267.5 86.7 268C86.5 268.2 86.2 268.4 85.9 268.6C85.6 268.7 85.2 268.8 84.8 268.8C84.4 268.8 83.9 268.7 83.5 268.5C83.1 268.3 82.7 268.1 82.4 267.8C82.1 267.5 81.9 267.1 81.8 266.8C81.7 266.4 81.6 266 81.6 265.5C81.6 264.6 81.8 263.9 82.1 263.1C82.4 262.4 82.8 261.7 83.4 261.2C83.6 261 83.9 260.7 84.2 260.5C84.5 260.3 84.8 260.1 85.1 260C85.4 259.9 85.6 259.7 85.8 259.6C86 259.5 86.1 259.5 86.2 259.4L87.5 261.4C87.3 261.5 87 261.6 86.7 261.8C86.4 261.9 86.1 262.1 85.8 262.3C85.5 262.5 85.3 262.8 85.1 263.1C84.9 263.4 84.8 263.7 84.8 264.1C85.5 264.1 86 264.3 86.5 264.7C87.1 265.1 87.4 265.6 87.4 266.3ZM332.7 323.2H336.5L348.3 302.6H344.5L332.7 323.2ZM332.6 324.7C331.4 324.7 330.4 325.7 330.4 326.9C330.4 328.1 331.3 329.1 332.6 329.1C333.8 329.1 334.8 328.2 334.8 326.9C334.8 325.6 333.8 324.7 332.6 324.7ZM306.2 319.2L307.3 317.3C311.7 311.2 314.6 312.9 313.3 315.2L311.5 318.3C310.4 320.2 307 321.6 306.2 319.2ZM331.3 322.1C331.1 321.5 330.4 320.9 329.9 320.8L329.6 321.1C328.3 322.7 326.7 324 325.1 325.2C326.3 321.6 326 316.1 328.4 311.2L325.6 309.7C324 311.8 320.6 316.8 317.2 320.8L316.9 321.1C314.2 324.3 311.5 326.8 309.9 326.8C309.1 326.8 308.3 326 308.3 324.3V322.7C311 323 313.8 321.3 315.5 318.2L316.5 316.5C320 310.5 314.3 308.5 310.4 312L315.8 302.7H312L301.2 321.4C301 321.2 300.8 321.1 300.5 320.9L300.2 321.2C297.5 324.4 294 326.9 291.3 326.9C289 326.9 287.6 325.4 289.3 322.4L293.2 315.6C295.4 311.9 299.2 312.5 297 316.4L296.5 317.3H299.6L300.1 316.4C302.1 312.9 300.2 310.3 297.1 310.3C294 310.3 291.6 311.9 290 314.7L286.3 321.1C286.2 321.1 286.1 321 286.1 321L285.8 321.3C283.1 324.5 280.4 327 278.8 327C278 327 277.5 326.4 278.4 324.9L286.5 310.8H282.7L276 322.5C273.1 325.1 270.9 326.6 270.2 326.2C269.3 325.8 270.2 324.4 270.7 323.6L278.1 310.7H274.3L267 323.4C266.2 324.1 264.6 324.8 263.8 325.3C265 321.7 264.7 316.2 267.1 311.3L264.3 309.8C262.7 311.9 254 323.5 250.6 327.5C250.9 328 251.5 328.4 252 328.8C254.1 326.3 261.3 317.1 262.7 315.3C261.2 319.2 262 326.3 258.4 326.3C257.1 326.3 256.6 324.9 256.6 324.9L254.2 326.1C254.2 326.1 254.9 329.1 258.3 329.1C258.7 329.1 259 329.1 259.4 329H259.5C261.4 328.7 264.1 327.9 265.9 326.6C265.9 328.1 266.8 329.1 268.4 329.1C270.5 329.1 272.8 327.2 274.6 325.5C274.2 327.5 275.4 329.1 277.8 329.1C280.1 329.1 282.8 327.2 285.2 324.7C285.2 327.2 287.2 329.1 290.3 329.1C293.4 329.1 296.4 327.4 299 325.1L296.9 328.8H300.7L305 321.3V324.3C305 327.5 305.6 329.2 308.7 329.2C311.8 329.2 315.4 325.9 318.5 322.2C320.6 319.7 322.5 317.1 323.9 315.3C322.4 319.2 323.2 326.3 319.6 326.3C318.3 326.3 317.8 324.9 317.8 324.9L315.4 326.1C315.4 326.1 316.1 329.1 319.5 329.1C319.9 329.1 320.2 329.1 320.6 329H320.7C324.7 328.5 328.5 325.4 331.3 322.1ZM216.7 321H216.5C215.3 321 214.3 322 214.3 323.3C214.3 323.8 214.4 324.2 214.7 324.6V324.7C212.9 327.7 208.6 327.2 210.8 323.2L213.7 318.2L215.5 315.1C218.2 310.6 221.8 312.4 219.5 316.3L216.7 321ZM191.3 335.2C190.5 336.6 189.2 336.4 189.2 335.4C189.2 334.4 190.1 333.3 193 332.2L191.3 335.2ZM162.5 321.4C160.2 325 158 326.7 156.4 326.7C155.6 326.7 155.1 326.1 156 324.6L161.3 315.4C163.3 311.9 167.4 312.8 165.5 316.2L162.5 321.4ZM150.5 306.7C151.6 304.8 152.9 303.9 153.9 303.9C155.3 303.9 156 304.8 156 306.2C156 309.7 151.6 317 145.8 316.1H145L150.5 306.7ZM243.3 320.8L243 321.1C240.3 324.3 237.6 326.8 236 326.8C235.2 326.8 234.7 326.2 235.6 324.7L241 315.1C242.6 312.2 241.1 310.2 239 310.2C237.4 310.2 235.7 311.1 233.8 313L235.2 310.5H231.4L225.3 321C225.1 320.9 225 320.8 224.8 320.7L224.5 321C222.8 322.9 220.7 323.8 218.8 323.8L222.4 317.7C224.7 313.7 222.6 310 219 310C216.1 310 213.8 311.2 211.7 314.9L209.8 318.1L208.2 320.9C208.1 320.8 208 320.8 207.9 320.7L207.6 321C204.5 324.6 201.8 326.9 198.8 328.2L209.2 310.5H205.4L198.7 322.1C195.8 324.8 193.5 326.3 192.8 326C191.9 325.6 192.8 324.2 193.3 323.4L200.7 310.5H196.9L190.9 320.9C190.8 320.8 190.7 320.8 190.6 320.7L190.3 321C187.6 324.2 184.9 326.7 183.3 326.7C182.5 326.7 182 326.1 182.9 324.6L188.3 315C189.9 312.1 188.4 310.1 186.3 310.1C184.7 310.1 183 311 181.1 312.9L182.5 310.4H178.7L172.7 320.8C172.6 320.7 172.5 320.7 172.3 320.6L172 320.9C169.3 324.1 166.6 326.6 165 326.6C164.2 326.6 163.7 326 164.6 324.5L170.7 313.8H168.6C168.7 312.2 167.1 310 164.6 310C162.6 310 159.7 311.6 158.1 314.4L154.2 321.1C153.9 320.9 153.6 320.7 153.4 320.6L153.1 320.9C150.4 324.1 148.3 326.6 144.5 326.6C141.9 326.6 140.4 324 142.6 320.2L143.7 318.3C144.4 318.4 145.1 318.5 145.8 318.5C149.8 318.5 154.4 316.4 157.4 311.2C158.5 309.3 158.9 307.6 158.9 306.1C158.9 302.7 156.7 300.5 153.9 300.5C151.8 300.5 149.4 302 147.7 304.9L141.8 315C139.6 313.8 138.4 311.7 138.4 309.6C138.4 307.9 139.2 306.1 140.8 304.8L139.6 302.6C136.9 304.5 135.7 307.1 135.7 309.6C135.7 312.6 137.4 315.5 140.5 317.1L139.4 319.1C136.7 323.7 138.3 328.8 143.6 328.8C147.8 328.8 149.7 326.9 152.3 324.4C151.5 326.8 152.7 328.8 155.3 328.8C156.8 328.8 158.7 327.8 160.5 326.3C160.7 327.8 161.8 328.8 163.8 328.8C165.6 328.8 167.6 327.7 169.5 326L168.1 328.4H171.9L177.7 318.3C183.5 311.1 186.1 312 184.4 314.8L179.5 323.3C177.9 326.1 179 328.7 182.1 328.7C184.1 328.7 186.4 327.3 188.5 325.3C188 327.4 189 328.7 190.9 328.7C192.7 328.7 194.8 327.2 196.5 325.7L194.4 329.3C189.3 330.8 186.1 332.9 186.1 335.8C186.1 339.4 191.7 340.2 194.4 335.5L197.3 330.5C200.5 329.5 203.6 327.5 206.8 324.3C206.3 329.6 213.3 330.8 217.5 325.4H218.3C219.7 325.4 221.5 324.9 223.2 323.9L220.7 328.3H224.5L230.3 318.2C236.1 311 238.7 311.9 237 314.7L232.1 323.2C230.5 326 231.6 328.6 234.7 328.6C237.8 328.6 241.4 325.3 244.5 321.6C244.4 321.6 243.8 321 243.3 320.8ZM361.9 285.2C359.6 288.9 357.3 290.7 355.7 290.7C354.9 290.7 354.4 290.1 355.3 288.6L360.6 279.4C362.6 275.9 366.7 276.8 364.8 280.2L361.9 285.2ZM325.7 285.4C323.4 289 321.2 290.7 319.6 290.7C318.8 290.7 318.3 290.1 319.2 288.6L324.5 279.4C326.5 275.9 330.6 276.8 328.7 280.2L325.7 285.4ZM285.8 299.2C285 300.6 283.7 300.4 283.7 299.4C283.7 298.4 284.6 297.3 287.5 296.2L285.8 299.2ZM293.8 270.7C294.9 268.8 296.2 267.9 297.2 267.9C303.2 267.9 298.7 282.3 289.1 280.1H288.3L293.8 270.7ZM371.5 284.8L371.2 285.1C368.5 288.3 365.8 290.8 364.2 290.8C363.4 290.8 362.9 290.2 363.8 288.7L376.6 266.6H372.8L367.2 276.2C366.5 275.1 365.3 274.2 363.7 274.2C361.7 274.2 358.8 275.8 357.2 278.6L353.5 285C353.4 285 353.3 284.9 353.3 284.9L353 285.2C350.3 288.4 348 290.9 346.3 290.9C345.5 290.9 345 290.3 345.9 288.8L351.4 279.2C353 276.3 351.5 274.3 349.4 274.3C347.8 274.3 346.1 275.2 344.2 277.1L345.6 274.6H341.8L335.8 285C335.7 284.9 335.6 284.9 335.4 284.8L335.1 285.1C332.4 288.3 329.7 290.8 328.1 290.8C327.3 290.8 326.8 290.2 327.7 288.7L333.8 278H331.7C331.8 276.4 330.2 274.2 327.7 274.2C325.7 274.2 322.8 275.8 321.2 278.6L317.5 284.9L317.3 285.1C314.6 288.3 311.5 290.8 309.9 290.8C309.1 290.8 308.6 290.2 309.5 288.7L313.3 282.1C314.6 279.8 314 278.5 312.8 277L310.7 274.5C310.2 273.8 310.2 273 310.9 272.3L308.9 270.2C306.8 272.1 306.6 274.3 307.9 276L308.2 276.4C306.5 278.8 304.3 282 301.8 284.9C301.9 285 302 285.1 302.1 285.2C299 288.8 296.3 291.1 293.4 292.4L298.2 284.2H294.4L294 284.9C292 288.4 289.7 290.9 286.8 290.9C284.2 290.9 283.8 288.3 286 284.5L287.1 282.6C287.8 282.7 288.5 282.8 289.2 282.8C302.6 282.8 309.1 264.8 297.3 264.8C295.2 264.8 292.8 266.3 291.1 269.2L285.2 279.3C283 278.1 281.8 276 281.8 273.9C281.8 272.2 282.6 270.4 284.2 269.1L283 266.9C280.3 268.8 279.1 271.4 279.1 273.9C279.1 276.9 280.8 279.8 283.9 281.4L282.8 283.4C280.1 288 280.6 293.1 286 293.1C287.6 293.1 288.9 292.6 290.1 291.9L289.1 293.6C284 295.2 280.8 297.2 280.8 300.1C280.8 303.7 286.4 304.5 289.1 299.8L292 294.8C295.9 293.6 299.8 290.9 303.9 286.1C303.8 286 303.8 285.9 303.7 285.7C305.4 283.7 306.8 281.8 309.7 278L310.2 278.6C310.7 279.2 310.9 280 310.4 280.7L306.4 287.6C304.8 290.4 305.9 293 309 293C310.9 293 313.3 291.8 315.4 290C315.4 291.7 316.5 293 318.7 293C320.2 293 322.1 292 323.9 290.5C324.1 292 325.2 293 327.2 293C329 293 331 291.9 332.9 290.2L331.5 292.6H335.3L341.1 282.5C346.9 275.3 349.5 276.2 347.8 279L342.9 287.5C341.3 290.3 342.4 292.9 345.5 292.9C347.5 292.9 349.3 291.5 351.5 289.6C351.3 291.5 352.5 292.9 354.8 292.9C356.3 292.9 358.2 291.9 360 290.4C360.2 291.9 361.3 292.9 363.3 292.9C366.4 292.9 370 289.6 373.1 285.9C372.6 285.6 372 285 371.5 284.8ZM259.2 279.5C261.4 275.8 265.2 276.4 263 280.3L262.5 281.2C260.7 284.3 258.2 284.2 256.8 283.7L259.2 279.5ZM256.2 293.1C260.5 293.1 264.7 289.8 267.9 286.1C267.6 285.6 267 285 266.5 284.8L266.2 285.1C263.5 288.3 260 290.8 257.3 290.8C255 290.8 253.6 289.3 255.3 286.3L255.7 285.6C258.1 286.6 262.7 286.1 265.5 281.2L266 280.3C268 276.8 266.1 274.2 263 274.2C260 274.2 257.5 275.8 255.9 278.6L252.2 284.9C252.2 284.9 252.1 284.9 252.1 284.8L251.8 285.1C249.1 288.3 246.4 290.8 244.8 290.8C244 290.8 243.5 290.2 244.4 288.7L249.8 279.1C251.4 276.2 249.9 274.2 247.8 274.2C246.2 274.2 244.4 275.1 242.5 277.1L248.5 266.6H244.7L234 285.1C233.9 285 233.7 284.9 233.6 284.8L233.3 285.1C230.6 288.3 227.9 290.8 226.3 290.8C225.5 290.8 225 290.2 225.9 288.7L234 274.6H237.1L238.2 272.8H235.1L238.7 266.6H234.9L231.3 272.8H227.9L226.8 274.6H230.2L222.6 287.8C221 290.6 222.1 293.2 225.2 293.2C227.1 293.2 229.1 292 231.1 290.2L229.6 292.8H233.4L239.1 282.8C244.9 275.5 247.5 276.4 245.9 279.2L241 287.7C239.4 290.5 240.5 293.1 243.6 293.1C245.9 293.1 248.4 291.3 250.9 288.9C251.1 291.3 253.1 293.1 256.2 293.1ZM128.7 279.5C130.9 275.8 134.7 276.4 132.5 280.3L132 281.2C130.2 284.3 127.7 284.2 126.3 283.7L128.7 279.5ZM151.8 288.7L157.1 279.5C159.1 276 163.2 276.9 161.3 280.3L158.4 285.5C156.1 289.1 153.9 290.8 152.3 290.8C151.4 290.7 150.9 290.2 151.8 288.7ZM205.8 279.5C208 275.8 211.8 276.4 209.6 280.3L209.1 281.2C207.3 284.3 204.9 284.2 203.4 283.7L205.8 279.5ZM148 289C147.4 291.2 148.6 293.1 151.1 293.1C152.6 293.1 154.5 292.1 156.3 290.6C156.5 292.1 157.6 293.1 159.6 293.1C161.6 293.1 163.8 291.7 166 289.8C165.6 291.8 166.5 293.1 168.4 293.1C170.5 293.1 172.8 291.2 174.6 289.5C174.2 291.5 175.4 293.1 177.8 293.1C180.9 293.1 184.5 289.8 187.6 286.1C187.6 286.1 187.5 286 187.5 285.9C189.6 283.5 191.4 280.9 192.7 279.1C191.2 283 192 290.1 188.4 290.1C187.1 290.1 186.6 288.7 186.6 288.7L184.2 289.9C184.2 289.9 184.9 293 188.3 293C188.7 293 189 293 189.4 292.9H189.5C192.3 292.5 195 290.8 197.4 288.7C197.5 291.2 199.4 293 202.5 293C206.8 293 211 289.7 214.2 286C213.9 285.5 213.3 284.9 212.8 284.7L212.5 285C209.8 288.2 206.3 290.7 203.6 290.7C201.3 290.7 199.9 289.2 201.6 286.2L202 285.5C204.4 286.5 209 286 211.8 281.1L212.3 280.2C214.3 276.7 212.4 274.1 209.3 274.1C206.2 274.1 203.8 275.7 202.2 278.5L198.5 284.8H198.4L198.1 285.1C196.8 286.7 195.2 288 193.6 289.2C194.8 285.6 194.5 280.1 196.9 275.2L194.1 273.7C192.5 275.8 189.1 280.8 185.7 284.8L185.8 284.9L185.7 285.1C183 288.3 180.3 290.8 178.7 290.8C177.9 290.8 177.4 290.2 178.3 288.7L186.4 274.6H182.6L175.9 286.3C173 288.9 170.8 290.4 170.1 290C169.2 289.6 170.1 288.2 170.6 287.4L178 274.5H174.2L168.2 284.9C168.1 284.8 168 284.8 167.9 284.7L167.6 285C164.9 288.2 162.2 290.7 160.6 290.7C159.8 290.7 159.3 290.1 160.2 288.6L166.3 277.9H164.2C164.3 276.3 162.7 274.1 160.2 274.1C158.2 274.1 155.3 275.7 153.7 278.5L149.9 285.1C149.7 285 149.5 284.8 149.3 284.7L149 285C146.3 288.2 143.1 290.7 140.5 290.7C138.2 290.7 136.8 289.2 138.5 286.2L142.4 279.4C144.6 275.7 148.4 276.3 146.2 280.2L145.7 281.1H148.8L149.3 280.2C151.3 276.7 149.4 274.1 146.3 274.1C143.2 274.1 141.2 275.7 139.6 278.5L135.8 284.9C135.7 284.8 135.6 284.8 135.5 284.7L135.2 285C132.5 288.2 129.3 290.7 126.6 290.7C124.3 290.7 122.9 289.2 124.6 286.2L125 285.5C127.4 286.5 132 286 134.8 281.1L135.3 280.2C137.3 276.7 135.4 274.1 132.3 274.1C129.2 274.1 126.8 275.7 125.2 278.5L121.2 285.3C118.8 289.3 120.9 293 125.3 293C128.6 293 131.3 291 134.1 288.4C134 291 136 293 139.2 293C142.6 293.1 145.3 291.3 148 289ZM111.1 275L114.2 269.8C117 265 120.5 267.8 118.6 271.4C117.1 274.1 115 275 111.1 275ZM107 292.3C104.7 292.3 103 291.8 101.6 291C102.3 290.2 102.9 289.3 103.5 288.3L109.9 277.3L110.9 277.4C119.7 279.2 116.2 292.3 107 292.3ZM116.4 276.8C124 274.2 124.6 264.7 117.1 264.7C115 264.7 112.6 266.2 110.9 269.1L100.7 286.7C100.3 287.5 99.8 288.2 99.2 288.8C96.6 285.2 97.3 279.8 101 277.5L99.5 275.6C91.6 280.6 93.9 295.2 107.1 295.2C118.4 295.2 123.6 281.6 116.4 276.8Z" stroke="black" stroke-width="2" mask="url(#path-3-inside-1_33515_805)"/>
</g>
</g>
<defs>
<filter id="filter0_d_33515_805" x="-3" y="126" width="464.7" height="220.765" filterUnits="userSpaceOnUse" color-interpolation-filters="sRGB">
<feFlood flood-opacity="0" result="BackgroundImageFix"/>
<feColorMatrix in="SourceAlpha" type="matrix" values="0 0 0 0 0 0 0 0 0 0 0 0 0 0 0 0 0 0 127 0" result="hardAlpha"/>
<feOffset dy="4"/>
<feGaussianBlur stdDeviation="2"/>
<feComposite in2="hardAlpha" operator="out"/>
<feColorMatrix type="matrix" values="0 0 0 0 0 0 0 0 0 0 0 0 0 0 0 0 0 0 0.25 0"/>
<feBlend mode="normal" in2="BackgroundImageFix" result="effect1_dropShadow_33515_805"/>
<feBlend mode="normal" in="SourceGraphic" in2="effect1_dropShadow_33515_805" result="shape"/>
</filter>
<clipPath id="clip0_33515_805">
<rect width="458" height="352" fill="white"/>
</clipPath>
</defs>
</svg>
